<?xml version="1.0" encoding="UTF-8" standalone="no"?>
<!DOCTYPE svg PUBLIC "-//W3C//DTD SVG 1.1//EN"
 "http://www.w3.org/Graphics/SVG/1.1/DTD/svg11.dtd">
<!-- Generated by graphviz version 2.43.0 (0)
 -->
<!-- Pages: 1 -->
<svg width="1339pt" height="693pt"
 viewBox="0.00 0.00 1339.00 693.00" xmlns="http://www.w3.org/2000/svg" xmlns:xlink="http://www.w3.org/1999/xlink">
<g id="graph0" class="graph" transform="scale(1 1) rotate(0) translate(4 689)">
<polygon fill="white" stroke="transparent" points="-4,4 -4,-689 1335,-689 1335,4 -4,4"/>
<text text-anchor="middle" x="665.5" y="-7.8" font-family="Times,serif" font-size="14.00">https://github.com/gnolang/roadmap &#45; generated on 2024/03/28 12:10</text>
<!-- &lt;https://github.com/gnolang/gno/issues/810&gt; -->
<g id="node1" class="node">
<title>&lt;https://github.com/gnolang/gno/issues/810&gt;</title>
<g id="a_node1"><a xlink:href="<https://github.com/gnolang/gno/issues/810>" xlink:title="Transaction signature bytes always use an uninitialized timestamp">
<path fill="none" stroke="black" d="M483,-91C483,-91 12,-91 12,-91 6,-91 0,-85 0,-79 0,-79 0,-67 0,-67 0,-61 6,-55 12,-55 12,-55 483,-55 483,-55 489,-55 495,-61 495,-67 495,-67 495,-79 495,-79 495,-85 489,-91 483,-91"/>
<text text-anchor="middle" x="247.5" y="-69.3" font-family="Times,serif" font-size="14.00">Transaction signature bytes always use an uninitialized timestamp</text>
</a>
</g>
</g>
<!-- &lt;https://github.com/gnolang/roadmap/issues/30&gt; -->
<g id="node2" class="node">
<title>&lt;https://github.com/gnolang/roadmap/issues/30&gt;</title>
<g id="a_node2"><a xlink:href="<https://github.com/gnolang/roadmap/issues/30>" xlink:title="GnoVM extensions, IBCx">
<path fill="none" stroke="black" d="M1319,-199C1319,-199 1149,-199 1149,-199 1143,-199 1137,-193 1137,-187 1137,-187 1137,-175 1137,-175 1137,-169 1143,-163 1149,-163 1149,-163 1319,-163 1319,-163 1325,-163 1331,-169 1331,-175 1331,-175 1331,-187 1331,-187 1331,-193 1325,-199 1319,-199"/>
<text text-anchor="middle" x="1234" y="-177.3" font-family="Times,serif" font-size="14.00">GnoVM extensions, IBCx</text>
</a>
</g>
</g>
<!-- &lt;https://github.com/gnolang/roadmap/issues/6&gt; -->
<g id="node3" class="node">
<title>&lt;https://github.com/gnolang/roadmap/issues/6&gt;</title>
<g id="a_node3"><a xlink:href="<https://github.com/gnolang/roadmap/issues/6>" xlink:title="Solid and straightforward roadmap/vision">
<path fill="none" stroke="black" d="M393,-307C393,-307 102,-307 102,-307 96,-307 90,-301 90,-295 90,-295 90,-283 90,-283 90,-277 96,-271 102,-271 102,-271 393,-271 393,-271 399,-271 405,-277 405,-283 405,-283 405,-295 405,-295 405,-301 399,-307 393,-307"/>
<text text-anchor="middle" x="247.5" y="-285.3" font-family="Times,serif" font-size="14.00">Solid and straightforward roadmap/vision</text>
</a>
</g>
</g>
<!-- &lt;https://github.com/gnolang/roadmap/issues/7&gt; -->
<g id="node4" class="node">
<title>&lt;https://github.com/gnolang/roadmap/issues/7&gt;</title>
<g id="a_node4"><a xlink:href="<https://github.com/gnolang/roadmap/issues/7>" xlink:title="Contributors&#39; DAO leads the project">
<path fill="none" stroke="black" d="M792,-307C792,-307 543,-307 543,-307 537,-307 531,-301 531,-295 531,-295 531,-283 531,-283 531,-277 537,-271 543,-271 543,-271 792,-271 792,-271 798,-271 804,-277 804,-283 804,-283 804,-295 804,-295 804,-301 798,-307 792,-307"/>
<text text-anchor="middle" x="667.5" y="-285.3" font-family="Times,serif" font-size="14.00">Contributors&#39; DAO leads the project</text>
</a>
</g>
</g>
<!-- &lt;https://github.com/gnolang/roadmap/issues/6&gt;&#45;&gt;&lt;https://github.com/gnolang/roadmap/issues/7&gt; -->
<g id="edge1" class="edge">
<title>&lt;https://github.com/gnolang/roadmap/issues/6&gt;&#45;&gt;&lt;https://github.com/gnolang/roadmap/issues/7&gt;</title>
<path fill="none" stroke="black" d="M405.04,-289C442.86,-289 483.12,-289 520.44,-289"/>
<polygon fill="black" stroke="black" points="520.88,-292.5 530.88,-289 520.88,-285.5 520.88,-292.5"/>
</g>
<!-- &lt;https://github.com/gnolang/roadmap/issues/8&gt; -->
<g id="node10" class="node">
<title>&lt;https://github.com/gnolang/roadmap/issues/8&gt;</title>
<g id="a_node10"><a xlink:href="<https://github.com/gnolang/roadmap/issues/8>" xlink:title="Gno.land is designed for longevity">
<path fill="none" stroke="black" d="M1089,-307C1089,-307 852,-307 852,-307 846,-307 840,-301 840,-295 840,-295 840,-283 840,-283 840,-277 846,-271 852,-271 852,-271 1089,-271 1089,-271 1095,-271 1101,-277 1101,-283 1101,-283 1101,-295 1101,-295 1101,-301 1095,-307 1089,-307"/>
<text text-anchor="middle" x="970.5" y="-285.3" font-family="Times,serif" font-size="14.00">Gno.land is designed for longevity</text>
</a>
</g>
</g>
<!-- &lt;https://github.com/gnolang/roadmap/issues/7&gt;&#45;&gt;&lt;https://github.com/gnolang/roadmap/issues/8&gt; -->
<g id="edge5" class="edge">
<title>&lt;https://github.com/gnolang/roadmap/issues/7&gt;&#45;&gt;&lt;https://github.com/gnolang/roadmap/issues/8&gt;</title>
<path fill="none" stroke="black" d="M804.03,-289C812.55,-289 821.14,-289 829.69,-289"/>
<polygon fill="black" stroke="black" points="829.69,-292.5 839.69,-289 829.69,-285.5 829.69,-292.5"/>
</g>
<!-- &lt;https://github.com/gnolang/gno/issues/1509&gt; -->
<g id="node5" class="node">
<title>&lt;https://github.com/gnolang/gno/issues/1509&gt;</title>
<g id="a_node5"><a xlink:href="<https://github.com/gnolang/gno/issues/1509>" xlink:title="gnodev time.Now() values are not preserved on reload">
<path fill="none" stroke="black" d="M438.5,-361C438.5,-361 56.5,-361 56.5,-361 50.5,-361 44.5,-355 44.5,-349 44.5,-349 44.5,-337 44.5,-337 44.5,-331 50.5,-325 56.5,-325 56.5,-325 438.5,-325 438.5,-325 444.5,-325 450.5,-331 450.5,-337 450.5,-337 450.5,-349 450.5,-349 450.5,-355 444.5,-361 438.5,-361"/>
<text text-anchor="middle" x="247.5" y="-339.3" font-family="Times,serif" font-size="14.00">gnodev time.Now() values are not preserved on reload</text>
</a>
</g>
</g>
<!-- &lt;https://github.com/gnolang/gno/issues/202&gt; -->
<g id="node6" class="node">
<title>&lt;https://github.com/gnolang/gno/issues/202&gt;</title>
<g id="a_node6"><a xlink:href="<https://github.com/gnolang/gno/issues/202>" xlink:title="Deflap flappy tests">
<path fill="none" stroke="black" d="M310.5,-415C310.5,-415 184.5,-415 184.5,-415 178.5,-415 172.5,-409 172.5,-403 172.5,-403 172.5,-391 172.5,-391 172.5,-385 178.5,-379 184.5,-379 184.5,-379 310.5,-379 310.5,-379 316.5,-379 322.5,-385 322.5,-391 322.5,-391 322.5,-403 322.5,-403 322.5,-409 316.5,-415 310.5,-415"/>
<text text-anchor="middle" x="247.5" y="-393.3" font-family="Times,serif" font-size="14.00">Deflap flappy tests</text>
</a>
</g>
</g>
<!-- &lt;https://github.com/gnolang/roadmap/issues/11&gt; -->
<g id="node7" class="node">
<title>&lt;https://github.com/gnolang/roadmap/issues/11&gt;</title>
<g id="a_node7"><a xlink:href="<https://github.com/gnolang/roadmap/issues/11>" xlink:title="Proof&#45;of&#45;Contributions MVP">
<path fill="none" stroke="black" d="M341.5,-253C341.5,-253 153.5,-253 153.5,-253 147.5,-253 141.5,-247 141.5,-241 141.5,-241 141.5,-229 141.5,-229 141.5,-223 147.5,-217 153.5,-217 153.5,-217 341.5,-217 341.5,-217 347.5,-217 353.5,-223 353.5,-229 353.5,-229 353.5,-241 353.5,-241 353.5,-247 347.5,-253 341.5,-253"/>
<text text-anchor="middle" x="247.5" y="-231.3" font-family="Times,serif" font-size="14.00">Proof&#45;of&#45;Contributions MVP</text>
</a>
</g>
</g>
<!-- &lt;https://github.com/gnolang/roadmap/issues/1&gt; -->
<g id="node8" class="node">
<title>&lt;https://github.com/gnolang/roadmap/issues/1&gt;</title>
<g id="a_node8"><a xlink:href="<https://github.com/gnolang/roadmap/issues/1>" xlink:title="Launch Gno.land mainnet">
<path fill="none" stroke="black" d="M755.5,-199C755.5,-199 579.5,-199 579.5,-199 573.5,-199 567.5,-193 567.5,-187 567.5,-187 567.5,-175 567.5,-175 567.5,-169 573.5,-163 579.5,-163 579.5,-163 755.5,-163 755.5,-163 761.5,-163 767.5,-169 767.5,-175 767.5,-175 767.5,-187 767.5,-187 767.5,-193 761.5,-199 755.5,-199"/>
<text text-anchor="middle" x="667.5" y="-177.3" font-family="Times,serif" font-size="14.00">Launch Gno.land mainnet</text>
</a>
</g>
</g>
<!-- &lt;https://github.com/gnolang/roadmap/issues/11&gt;&#45;&gt;&lt;https://github.com/gnolang/roadmap/issues/1&gt; -->
<g id="edge2" class="edge">
<title>&lt;https://github.com/gnolang/roadmap/issues/11&gt;&#45;&gt;&lt;https://github.com/gnolang/roadmap/issues/1&gt;</title>
<path fill="none" stroke="black" d="M353.59,-224.59C397.37,-219.97 448.7,-214.18 495,-208 515.15,-205.31 536.6,-202.16 557.25,-198.99"/>
<polygon fill="black" stroke="black" points="557.97,-202.42 567.31,-197.43 556.89,-195.5 557.97,-202.42"/>
</g>
<!-- &lt;https://github.com/gnolang/roadmap/issues/4&gt; -->
<g id="node17" class="node">
<title>&lt;https://github.com/gnolang/roadmap/issues/4&gt;</title>
<g id="a_node17"><a xlink:href="<https://github.com/gnolang/roadmap/issues/4>" xlink:title="IBC1 on Gno.land">
<path fill="none" stroke="black" d="M1029.5,-199C1029.5,-199 911.5,-199 911.5,-199 905.5,-199 899.5,-193 899.5,-187 899.5,-187 899.5,-175 899.5,-175 899.5,-169 905.5,-163 911.5,-163 911.5,-163 1029.5,-163 1029.5,-163 1035.5,-163 1041.5,-169 1041.5,-175 1041.5,-175 1041.5,-187 1041.5,-187 1041.5,-193 1035.5,-199 1029.5,-199"/>
<text text-anchor="middle" x="970.5" y="-177.3" font-family="Times,serif" font-size="14.00">IBC1 on Gno.land</text>
</a>
</g>
</g>
<!-- &lt;https://github.com/gnolang/roadmap/issues/1&gt;&#45;&gt;&lt;https://github.com/gnolang/roadmap/issues/4&gt; -->
<g id="edge6" class="edge">
<title>&lt;https://github.com/gnolang/roadmap/issues/1&gt;&#45;&gt;&lt;https://github.com/gnolang/roadmap/issues/4&gt;</title>
<path fill="none" stroke="black" d="M767.89,-181C807.18,-181 851.74,-181 888.96,-181"/>
<polygon fill="black" stroke="black" points="889.25,-184.5 899.25,-181 889.25,-177.5 889.25,-184.5"/>
</g>
<!-- &lt;https://github.com/gnolang/roadmap/issues/3&gt; -->
<g id="node9" class="node">
<title>&lt;https://github.com/gnolang/roadmap/issues/3&gt;</title>
<g id="a_node9"><a xlink:href="<https://github.com/gnolang/roadmap/issues/3>" xlink:title="Tendermint2 MVP is finished">
<path fill="none" stroke="black" d="M347.5,-199C347.5,-199 147.5,-199 147.5,-199 141.5,-199 135.5,-193 135.5,-187 135.5,-187 135.5,-175 135.5,-175 135.5,-169 141.5,-163 147.5,-163 147.5,-163 347.5,-163 347.5,-163 353.5,-163 359.5,-169 359.5,-175 359.5,-175 359.5,-187 359.5,-187 359.5,-193 353.5,-199 347.5,-199"/>
<text text-anchor="middle" x="247.5" y="-177.3" font-family="Times,serif" font-size="14.00">Tendermint2 MVP is finished</text>
</a>
</g>
</g>
<!-- &lt;https://github.com/gnolang/roadmap/issues/3&gt;&#45;&gt;&lt;https://github.com/gnolang/roadmap/issues/1&gt; -->
<g id="edge3" class="edge">
<title>&lt;https://github.com/gnolang/roadmap/issues/3&gt;&#45;&gt;&lt;https://github.com/gnolang/roadmap/issues/1&gt;</title>
<path fill="none" stroke="black" d="M359.69,-181C420.86,-181 496.47,-181 557.32,-181"/>
<polygon fill="black" stroke="black" points="557.34,-184.5 567.34,-181 557.34,-177.5 557.34,-184.5"/>
</g>
<!-- &lt;https://github.com/gnolang/gno/issues/407&gt; -->
<g id="node11" class="node">
<title>&lt;https://github.com/gnolang/gno/issues/407&gt;</title>
<g id="a_node11"><a xlink:href="<https://github.com/gnolang/gno/issues/407>" xlink:title="GOR — Evaluation DAO">
<path fill="none" stroke="black" d="M328.5,-469C328.5,-469 166.5,-469 166.5,-469 160.5,-469 154.5,-463 154.5,-457 154.5,-457 154.5,-445 154.5,-445 154.5,-439 160.5,-433 166.5,-433 166.5,-433 328.5,-433 328.5,-433 334.5,-433 340.5,-439 340.5,-445 340.5,-445 340.5,-457 340.5,-457 340.5,-463 334.5,-469 328.5,-469"/>
<text text-anchor="middle" x="247.5" y="-447.3" font-family="Times,serif" font-size="14.00">GOR — Evaluation DAO</text>
</a>
</g>
</g>
<!-- &lt;https://github.com/gnolang/gno/issues/903&gt; -->
<g id="node12" class="node">
<title>&lt;https://github.com/gnolang/gno/issues/903&gt;</title>
<g id="a_node12"><a xlink:href="<https://github.com/gnolang/gno/issues/903>" xlink:title="p/demo/ui improvements">
<path fill="none" stroke="black" d="M332.5,-523C332.5,-523 162.5,-523 162.5,-523 156.5,-523 150.5,-517 150.5,-511 150.5,-511 150.5,-499 150.5,-499 150.5,-493 156.5,-487 162.5,-487 162.5,-487 332.5,-487 332.5,-487 338.5,-487 344.5,-493 344.5,-499 344.5,-499 344.5,-511 344.5,-511 344.5,-517 338.5,-523 332.5,-523"/>
<text text-anchor="middle" x="247.5" y="-501.3" font-family="Times,serif" font-size="14.00">p/demo/ui improvements</text>
</a>
</g>
</g>
<!-- &lt;https://github.com/gnolang/roadmap/issues/2&gt; -->
<g id="node13" class="node">
<title>&lt;https://github.com/gnolang/roadmap/issues/2&gt;</title>
<g id="a_node13"><a xlink:href="<https://github.com/gnolang/roadmap/issues/2>" xlink:title="GnoVM MVP is finished">
<path fill="none" stroke="black" d="M328,-145C328,-145 167,-145 167,-145 161,-145 155,-139 155,-133 155,-133 155,-121 155,-121 155,-115 161,-109 167,-109 167,-109 328,-109 328,-109 334,-109 340,-115 340,-121 340,-121 340,-133 340,-133 340,-139 334,-145 328,-145"/>
<text text-anchor="middle" x="247.5" y="-123.3" font-family="Times,serif" font-size="14.00">GnoVM MVP is finished</text>
</a>
</g>
</g>
<!-- &lt;https://github.com/gnolang/roadmap/issues/2&gt;&#45;&gt;&lt;https://github.com/gnolang/roadmap/issues/1&gt; -->
<g id="edge4" class="edge">
<title>&lt;https://github.com/gnolang/roadmap/issues/2&gt;&#45;&gt;&lt;https://github.com/gnolang/roadmap/issues/1&gt;</title>
<path fill="none" stroke="black" d="M340.22,-136.01C386.67,-140.84 443.9,-147.18 495,-154 515.15,-156.69 536.6,-159.84 557.25,-163.01"/>
<polygon fill="black" stroke="black" points="556.89,-166.5 567.31,-164.57 557.97,-159.58 556.89,-166.5"/>
</g>
<!-- &lt;https://github.com/gnolang/gno/issues/1375&gt; -->
<g id="node14" class="node">
<title>&lt;https://github.com/gnolang/gno/issues/1375&gt;</title>
<g id="a_node14"><a xlink:href="<https://github.com/gnolang/gno/issues/1375>" xlink:title="[RFC] Embrace secure signing methods">
<path fill="none" stroke="black" d="M393,-577C393,-577 102,-577 102,-577 96,-577 90,-571 90,-565 90,-565 90,-553 90,-553 90,-547 96,-541 102,-541 102,-541 393,-541 393,-541 399,-541 405,-547 405,-553 405,-553 405,-565 405,-565 405,-571 399,-577 393,-577"/>
<text text-anchor="middle" x="247.5" y="-555.3" font-family="Times,serif" font-size="14.00">[RFC] Embrace secure signing methods</text>
</a>
</g>
</g>
<!-- &lt;https://github.com/gnolang/gno/issues/408&gt; -->
<g id="node15" class="node">
<title>&lt;https://github.com/gnolang/gno/issues/408&gt;</title>
<g id="a_node15"><a xlink:href="<https://github.com/gnolang/gno/issues/408>" xlink:title="GOR — Write Tutorials &amp; Documentation">
<path fill="none" stroke="black" d="M391,-631C391,-631 104,-631 104,-631 98,-631 92,-625 92,-619 92,-619 92,-607 92,-607 92,-601 98,-595 104,-595 104,-595 391,-595 391,-595 397,-595 403,-601 403,-607 403,-607 403,-619 403,-619 403,-625 397,-631 391,-631"/>
<text text-anchor="middle" x="247.5" y="-609.3" font-family="Times,serif" font-size="14.00">GOR — Write Tutorials &amp; Documentation</text>
</a>
</g>
</g>
<!-- &lt;https://github.com/gnolang/gno/issues/409&gt; -->
<g id="node16" class="node">
<title>&lt;https://github.com/gnolang/gno/issues/409&gt;</title>
<g id="a_node16"><a xlink:href="<https://github.com/gnolang/gno/issues/409>" xlink:title="GOR — Governance Module">
<path fill="none" stroke="black" d="M343,-685C343,-685 152,-685 152,-685 146,-685 140,-679 140,-673 140,-673 140,-661 140,-661 140,-655 146,-649 152,-649 152,-649 343,-649 343,-649 349,-649 355,-655 355,-661 355,-661 355,-673 355,-673 355,-679 349,-685 343,-685"/>
<text text-anchor="middle" x="247.5" y="-663.3" font-family="Times,serif" font-size="14.00">GOR — Governance Module</text>
</a>
</g>
</g>
<!-- &lt;https://github.com/gnolang/roadmap/issues/4&gt;&#45;&gt;&lt;https://github.com/gnolang/roadmap/issues/30&gt; -->
<g id="edge7" class="edge">
<title>&lt;https://github.com/gnolang/roadmap/issues/4&gt;&#45;&gt;&lt;https://github.com/gnolang/roadmap/issues/30&gt;</title>
<path fill="none" stroke="black" d="M1041.58,-181C1067.7,-181 1097.97,-181 1126.62,-181"/>
<polygon fill="black" stroke="black" points="1126.67,-184.5 1136.67,-181 1126.67,-177.5 1126.67,-184.5"/>
</g>
</g>
</svg>
