<?xml version="1.0" encoding="UTF-8" standalone="no"?>
<!DOCTYPE svg PUBLIC "-//W3C//DTD SVG 1.1//EN"
 "http://www.w3.org/Graphics/SVG/1.1/DTD/svg11.dtd">
<!-- Generated by graphviz version 2.43.0 (0)
 -->
<!-- Pages: 1 -->
<svg width="1058pt" height="423pt"
 viewBox="0.00 0.00 1058.00 423.00" xmlns="http://www.w3.org/2000/svg" xmlns:xlink="http://www.w3.org/1999/xlink">
<g id="graph0" class="graph" transform="scale(1 1) rotate(0) translate(4 419)">
<polygon fill="white" stroke="transparent" points="-4,4 -4,-419 1054,-419 1054,4 -4,4"/>
<text text-anchor="middle" x="525" y="-7.8" font-family="Times,serif" font-size="14.00">https://github.com/gnolang/roadmap &#45; generated on 2024/11/12 12:09</text>
<!-- &lt;https://github.com/gnolang/roadmap/issues/1&gt; -->
<g id="node1" class="node">
<title>&lt;https://github.com/gnolang/roadmap/issues/1&gt;</title>
<g id="a_node1"><a xlink:href="<https://github.com/gnolang/roadmap/issues/1>" xlink:title="Launch Gno.land mainnet">
<path fill="none" stroke="black" d="M630,-118C630,-118 454,-118 454,-118 448,-118 442,-112 442,-106 442,-106 442,-94 442,-94 442,-88 448,-82 454,-82 454,-82 630,-82 630,-82 636,-82 642,-88 642,-94 642,-94 642,-106 642,-106 642,-112 636,-118 630,-118"/>
<text text-anchor="middle" x="542" y="-96.3" font-family="Times,serif" font-size="14.00">Launch Gno.land mainnet</text>
</a>
</g>
</g>
<!-- &lt;https://github.com/gnolang/roadmap/issues/4&gt; -->
<g id="node2" class="node">
<title>&lt;https://github.com/gnolang/roadmap/issues/4&gt;</title>
<g id="a_node2"><a xlink:href="<https://github.com/gnolang/roadmap/issues/4>" xlink:title="IBC1 on Gno.land">
<path fill="none" stroke="black" d="M808,-118C808,-118 690,-118 690,-118 684,-118 678,-112 678,-106 678,-106 678,-94 678,-94 678,-88 684,-82 690,-82 690,-82 808,-82 808,-82 814,-82 820,-88 820,-94 820,-94 820,-106 820,-106 820,-112 814,-118 808,-118"/>
<text text-anchor="middle" x="749" y="-96.3" font-family="Times,serif" font-size="14.00">IBC1 on Gno.land</text>
</a>
</g>
</g>
<!-- &lt;https://github.com/gnolang/roadmap/issues/1&gt;&#45;&gt;&lt;https://github.com/gnolang/roadmap/issues/4&gt; -->
<g id="edge1" class="edge">
<title>&lt;https://github.com/gnolang/roadmap/issues/1&gt;&#45;&gt;&lt;https://github.com/gnolang/roadmap/issues/4&gt;</title>
<path fill="none" stroke="black" d="M642.2,-100C650.77,-100 659.38,-100 667.77,-100"/>
<polygon fill="black" stroke="black" points="667.89,-103.5 677.89,-100 667.89,-96.5 667.89,-103.5"/>
</g>
<!-- &lt;https://github.com/gnolang/roadmap/issues/30&gt; -->
<g id="node4" class="node">
<title>&lt;https://github.com/gnolang/roadmap/issues/30&gt;</title>
<g id="a_node4"><a xlink:href="<https://github.com/gnolang/roadmap/issues/30>" xlink:title="GnoVM extensions, IBCx">
<path fill="none" stroke="black" d="M1038,-118C1038,-118 868,-118 868,-118 862,-118 856,-112 856,-106 856,-106 856,-94 856,-94 856,-88 862,-82 868,-82 868,-82 1038,-82 1038,-82 1044,-82 1050,-88 1050,-94 1050,-94 1050,-106 1050,-106 1050,-112 1044,-118 1038,-118"/>
<text text-anchor="middle" x="953" y="-96.3" font-family="Times,serif" font-size="14.00">GnoVM extensions, IBCx</text>
</a>
</g>
</g>
<!-- &lt;https://github.com/gnolang/roadmap/issues/4&gt;&#45;&gt;&lt;https://github.com/gnolang/roadmap/issues/30&gt; -->
<g id="edge4" class="edge">
<title>&lt;https://github.com/gnolang/roadmap/issues/4&gt;&#45;&gt;&lt;https://github.com/gnolang/roadmap/issues/30&gt;</title>
<path fill="none" stroke="black" d="M820.08,-100C828.35,-100 836.93,-100 845.56,-100"/>
<polygon fill="black" stroke="black" points="845.71,-103.5 855.71,-100 845.71,-96.5 845.71,-103.5"/>
</g>
<!-- &lt;https://github.com/gnolang/roadmap/issues/11&gt; -->
<g id="node3" class="node">
<title>&lt;https://github.com/gnolang/roadmap/issues/11&gt;</title>
<g id="a_node3"><a xlink:href="<https://github.com/gnolang/roadmap/issues/11>" xlink:title="Proof&#45;of&#45;Contributions MVP">
<path fill="none" stroke="black" d="M297,-145C297,-145 109,-145 109,-145 103,-145 97,-139 97,-133 97,-133 97,-121 97,-121 97,-115 103,-109 109,-109 109,-109 297,-109 297,-109 303,-109 309,-115 309,-121 309,-121 309,-133 309,-133 309,-139 303,-145 297,-145"/>
<text text-anchor="middle" x="203" y="-123.3" font-family="Times,serif" font-size="14.00">Proof&#45;of&#45;Contributions MVP</text>
</a>
</g>
</g>
<!-- &lt;https://github.com/gnolang/roadmap/issues/11&gt;&#45;&gt;&lt;https://github.com/gnolang/roadmap/issues/1&gt; -->
<g id="edge2" class="edge">
<title>&lt;https://github.com/gnolang/roadmap/issues/11&gt;&#45;&gt;&lt;https://github.com/gnolang/roadmap/issues/1&gt;</title>
<path fill="none" stroke="black" d="M309.24,-118.57C348.15,-115.45 392.32,-111.91 431.59,-108.77"/>
<polygon fill="black" stroke="black" points="432.04,-112.24 441.73,-107.95 431.48,-105.26 432.04,-112.24"/>
</g>
<!-- &lt;https://github.com/gnolang/roadmap/issues/3&gt; -->
<g id="node5" class="node">
<title>&lt;https://github.com/gnolang/roadmap/issues/3&gt;</title>
<g id="a_node5"><a xlink:href="<https://github.com/gnolang/roadmap/issues/3>" xlink:title="Tendermint2 MVP is finished">
<path fill="none" stroke="black" d="M303,-91C303,-91 103,-91 103,-91 97,-91 91,-85 91,-79 91,-79 91,-67 91,-67 91,-61 97,-55 103,-55 103,-55 303,-55 303,-55 309,-55 315,-61 315,-67 315,-67 315,-79 315,-79 315,-85 309,-91 303,-91"/>
<text text-anchor="middle" x="203" y="-69.3" font-family="Times,serif" font-size="14.00">Tendermint2 MVP is finished</text>
</a>
</g>
</g>
<!-- &lt;https://github.com/gnolang/roadmap/issues/3&gt;&#45;&gt;&lt;https://github.com/gnolang/roadmap/issues/1&gt; -->
<g id="edge3" class="edge">
<title>&lt;https://github.com/gnolang/roadmap/issues/3&gt;&#45;&gt;&lt;https://github.com/gnolang/roadmap/issues/1&gt;</title>
<path fill="none" stroke="black" d="M315.28,-81.92C352.61,-84.91 394.19,-88.24 431.38,-91.22"/>
<polygon fill="black" stroke="black" points="431.5,-94.74 441.75,-92.05 432.06,-87.76 431.5,-94.74"/>
</g>
<!-- &lt;https://github.com/gnolang/roadmap/issues/6&gt; -->
<g id="node6" class="node">
<title>&lt;https://github.com/gnolang/roadmap/issues/6&gt;</title>
<g id="a_node6"><a xlink:href="<https://github.com/gnolang/roadmap/issues/6>" xlink:title="Solid and straightforward roadmap/vision">
<path fill="none" stroke="black" d="M348.5,-199C348.5,-199 57.5,-199 57.5,-199 51.5,-199 45.5,-193 45.5,-187 45.5,-187 45.5,-175 45.5,-175 45.5,-169 51.5,-163 57.5,-163 57.5,-163 348.5,-163 348.5,-163 354.5,-163 360.5,-169 360.5,-175 360.5,-175 360.5,-187 360.5,-187 360.5,-193 354.5,-199 348.5,-199"/>
<text text-anchor="middle" x="203" y="-177.3" font-family="Times,serif" font-size="14.00">Solid and straightforward roadmap/vision</text>
</a>
</g>
</g>
<!-- &lt;https://github.com/gnolang/gno/issues/1509&gt; -->
<g id="node7" class="node">
<title>&lt;https://github.com/gnolang/gno/issues/1509&gt;</title>
<g id="a_node7"><a xlink:href="<https://github.com/gnolang/gno/issues/1509>" xlink:title="gnodev time.Now() values are not preserved on reload">
<path fill="none" stroke="black" d="M394,-253C394,-253 12,-253 12,-253 6,-253 0,-247 0,-241 0,-241 0,-229 0,-229 0,-223 6,-217 12,-217 12,-217 394,-217 394,-217 400,-217 406,-223 406,-229 406,-229 406,-241 406,-241 406,-247 400,-253 394,-253"/>
<text text-anchor="middle" x="203" y="-231.3" font-family="Times,serif" font-size="14.00">gnodev time.Now() values are not preserved on reload</text>
</a>
</g>
</g>
<!-- &lt;https://github.com/gnolang/gno/issues/2025&gt; -->
<g id="node8" class="node">
<title>&lt;https://github.com/gnolang/gno/issues/2025&gt;</title>
<g id="a_node8"><a xlink:href="<https://github.com/gnolang/gno/issues/2025>" xlink:title="Clarify gRPC and Amino">
<path fill="none" stroke="black" d="M285.5,-307C285.5,-307 120.5,-307 120.5,-307 114.5,-307 108.5,-301 108.5,-295 108.5,-295 108.5,-283 108.5,-283 108.5,-277 114.5,-271 120.5,-271 120.5,-271 285.5,-271 285.5,-271 291.5,-271 297.5,-277 297.5,-283 297.5,-283 297.5,-295 297.5,-295 297.5,-301 291.5,-307 285.5,-307"/>
<text text-anchor="middle" x="203" y="-285.3" font-family="Times,serif" font-size="14.00">Clarify gRPC and Amino</text>
</a>
</g>
</g>
<!-- &lt;https://github.com/gnolang/gno/issues/407&gt; -->
<g id="node9" class="node">
<title>&lt;https://github.com/gnolang/gno/issues/407&gt;</title>
<g id="a_node9"><a xlink:href="<https://github.com/gnolang/gno/issues/407>" xlink:title="GOR — Evaluation DAO">
<path fill="none" stroke="black" d="M284,-361C284,-361 122,-361 122,-361 116,-361 110,-355 110,-349 110,-349 110,-337 110,-337 110,-331 116,-325 122,-325 122,-325 284,-325 284,-325 290,-325 296,-331 296,-337 296,-337 296,-349 296,-349 296,-355 290,-361 284,-361"/>
<text text-anchor="middle" x="203" y="-339.3" font-family="Times,serif" font-size="14.00">GOR — Evaluation DAO</text>
</a>
</g>
</g>
<!-- &lt;https://github.com/gnolang/gno/issues/588&gt; -->
<g id="node10" class="node">
<title>&lt;https://github.com/gnolang/gno/issues/588&gt;</title>
<g id="a_node10"><a xlink:href="<https://github.com/gnolang/gno/issues/588>" xlink:title="manage long and special tests effectively">
<path fill="none" stroke="black" d="M346.5,-415C346.5,-415 59.5,-415 59.5,-415 53.5,-415 47.5,-409 47.5,-403 47.5,-403 47.5,-391 47.5,-391 47.5,-385 53.5,-379 59.5,-379 59.5,-379 346.5,-379 346.5,-379 352.5,-379 358.5,-385 358.5,-391 358.5,-391 358.5,-403 358.5,-403 358.5,-409 352.5,-415 346.5,-415"/>
<text text-anchor="middle" x="203" y="-393.3" font-family="Times,serif" font-size="14.00">manage long and special tests effectively</text>
</a>
</g>
</g>
</g>
</svg>
