<?xml version="1.0" encoding="UTF-8" standalone="no"?>
<!DOCTYPE svg PUBLIC "-//W3C//DTD SVG 1.1//EN"
 "http://www.w3.org/Graphics/SVG/1.1/DTD/svg11.dtd">
<!-- Generated by graphviz version 2.43.0 (0)
 -->
<!-- Pages: 1 -->
<svg width="1058pt" height="423pt"
 viewBox="0.00 0.00 1058.00 423.00" xmlns="http://www.w3.org/2000/svg" xmlns:xlink="http://www.w3.org/1999/xlink">
<g id="graph0" class="graph" transform="scale(1 1) rotate(0) translate(4 419)">
<polygon fill="white" stroke="transparent" points="-4,4 -4,-419 1054,-419 1054,4 -4,4"/>
<text text-anchor="middle" x="525" y="-7.8" font-family="Times,serif" font-size="14.00">https://github.com/gnolang/roadmap &#45; generated on 2024/10/18 12:09</text>
<!-- &lt;https://github.com/gnolang/gno/issues/1509&gt; -->
<g id="node1" class="node">
<title>&lt;https://github.com/gnolang/gno/issues/1509&gt;</title>
<g id="a_node1"><a xlink:href="<https://github.com/gnolang/gno/issues/1509>" xlink:title="gnodev time.Now() values are not preserved on reload">
<path fill="none" stroke="black" d="M394,-91C394,-91 12,-91 12,-91 6,-91 0,-85 0,-79 0,-79 0,-67 0,-67 0,-61 6,-55 12,-55 12,-55 394,-55 394,-55 400,-55 406,-61 406,-67 406,-67 406,-79 406,-79 406,-85 400,-91 394,-91"/>
<text text-anchor="middle" x="203" y="-69.3" font-family="Times,serif" font-size="14.00">gnodev time.Now() values are not preserved on reload</text>
</a>
</g>
</g>
<!-- &lt;https://github.com/gnolang/gno/issues/407&gt; -->
<g id="node2" class="node">
<title>&lt;https://github.com/gnolang/gno/issues/407&gt;</title>
<g id="a_node2"><a xlink:href="<https://github.com/gnolang/gno/issues/407>" xlink:title="GOR — Evaluation DAO">
<path fill="none" stroke="black" d="M284,-145C284,-145 122,-145 122,-145 116,-145 110,-139 110,-133 110,-133 110,-121 110,-121 110,-115 116,-109 122,-109 122,-109 284,-109 284,-109 290,-109 296,-115 296,-121 296,-121 296,-133 296,-133 296,-139 290,-145 284,-145"/>
<text text-anchor="middle" x="203" y="-123.3" font-family="Times,serif" font-size="14.00">GOR — Evaluation DAO</text>
</a>
</g>
</g>
<!-- &lt;https://github.com/gnolang/roadmap/issues/1&gt; -->
<g id="node3" class="node">
<title>&lt;https://github.com/gnolang/roadmap/issues/1&gt;</title>
<g id="a_node3"><a xlink:href="<https://github.com/gnolang/roadmap/issues/1>" xlink:title="Launch Gno.land mainnet">
<path fill="none" stroke="black" d="M630,-226C630,-226 454,-226 454,-226 448,-226 442,-220 442,-214 442,-214 442,-202 442,-202 442,-196 448,-190 454,-190 454,-190 630,-190 630,-190 636,-190 642,-196 642,-202 642,-202 642,-214 642,-214 642,-220 636,-226 630,-226"/>
<text text-anchor="middle" x="542" y="-204.3" font-family="Times,serif" font-size="14.00">Launch Gno.land mainnet</text>
</a>
</g>
</g>
<!-- &lt;https://github.com/gnolang/roadmap/issues/4&gt; -->
<g id="node4" class="node">
<title>&lt;https://github.com/gnolang/roadmap/issues/4&gt;</title>
<g id="a_node4"><a xlink:href="<https://github.com/gnolang/roadmap/issues/4>" xlink:title="IBC1 on Gno.land">
<path fill="none" stroke="black" d="M808,-226C808,-226 690,-226 690,-226 684,-226 678,-220 678,-214 678,-214 678,-202 678,-202 678,-196 684,-190 690,-190 690,-190 808,-190 808,-190 814,-190 820,-196 820,-202 820,-202 820,-214 820,-214 820,-220 814,-226 808,-226"/>
<text text-anchor="middle" x="749" y="-204.3" font-family="Times,serif" font-size="14.00">IBC1 on Gno.land</text>
</a>
</g>
</g>
<!-- &lt;https://github.com/gnolang/roadmap/issues/1&gt;&#45;&gt;&lt;https://github.com/gnolang/roadmap/issues/4&gt; -->
<g id="edge1" class="edge">
<title>&lt;https://github.com/gnolang/roadmap/issues/1&gt;&#45;&gt;&lt;https://github.com/gnolang/roadmap/issues/4&gt;</title>
<path fill="none" stroke="black" d="M642.2,-208C650.77,-208 659.38,-208 667.77,-208"/>
<polygon fill="black" stroke="black" points="667.89,-211.5 677.89,-208 667.89,-204.5 667.89,-211.5"/>
</g>
<!-- &lt;https://github.com/gnolang/roadmap/issues/30&gt; -->
<g id="node10" class="node">
<title>&lt;https://github.com/gnolang/roadmap/issues/30&gt;</title>
<g id="a_node10"><a xlink:href="<https://github.com/gnolang/roadmap/issues/30>" xlink:title="GnoVM extensions, IBCx">
<path fill="none" stroke="black" d="M1038,-226C1038,-226 868,-226 868,-226 862,-226 856,-220 856,-214 856,-214 856,-202 856,-202 856,-196 862,-190 868,-190 868,-190 1038,-190 1038,-190 1044,-190 1050,-196 1050,-202 1050,-202 1050,-214 1050,-214 1050,-220 1044,-226 1038,-226"/>
<text text-anchor="middle" x="953" y="-204.3" font-family="Times,serif" font-size="14.00">GnoVM extensions, IBCx</text>
</a>
</g>
</g>
<!-- &lt;https://github.com/gnolang/roadmap/issues/4&gt;&#45;&gt;&lt;https://github.com/gnolang/roadmap/issues/30&gt; -->
<g id="edge4" class="edge">
<title>&lt;https://github.com/gnolang/roadmap/issues/4&gt;&#45;&gt;&lt;https://github.com/gnolang/roadmap/issues/30&gt;</title>
<path fill="none" stroke="black" d="M820.08,-208C828.35,-208 836.93,-208 845.56,-208"/>
<polygon fill="black" stroke="black" points="845.71,-211.5 855.71,-208 845.71,-204.5 845.71,-211.5"/>
</g>
<!-- &lt;https://github.com/gnolang/roadmap/issues/3&gt; -->
<g id="node5" class="node">
<title>&lt;https://github.com/gnolang/roadmap/issues/3&gt;</title>
<g id="a_node5"><a xlink:href="<https://github.com/gnolang/roadmap/issues/3>" xlink:title="Tendermint2 MVP is finished">
<path fill="none" stroke="black" d="M303,-253C303,-253 103,-253 103,-253 97,-253 91,-247 91,-241 91,-241 91,-229 91,-229 91,-223 97,-217 103,-217 103,-217 303,-217 303,-217 309,-217 315,-223 315,-229 315,-229 315,-241 315,-241 315,-247 309,-253 303,-253"/>
<text text-anchor="middle" x="203" y="-231.3" font-family="Times,serif" font-size="14.00">Tendermint2 MVP is finished</text>
</a>
</g>
</g>
<!-- &lt;https://github.com/gnolang/roadmap/issues/3&gt;&#45;&gt;&lt;https://github.com/gnolang/roadmap/issues/1&gt; -->
<g id="edge2" class="edge">
<title>&lt;https://github.com/gnolang/roadmap/issues/3&gt;&#45;&gt;&lt;https://github.com/gnolang/roadmap/issues/1&gt;</title>
<path fill="none" stroke="black" d="M315.28,-226.08C352.61,-223.09 394.19,-219.76 431.38,-216.78"/>
<polygon fill="black" stroke="black" points="432.06,-220.24 441.75,-215.95 431.5,-213.26 432.06,-220.24"/>
</g>
<!-- &lt;https://github.com/gnolang/roadmap/issues/6&gt; -->
<g id="node6" class="node">
<title>&lt;https://github.com/gnolang/roadmap/issues/6&gt;</title>
<g id="a_node6"><a xlink:href="<https://github.com/gnolang/roadmap/issues/6>" xlink:title="Solid and straightforward roadmap/vision">
<path fill="none" stroke="black" d="M348.5,-307C348.5,-307 57.5,-307 57.5,-307 51.5,-307 45.5,-301 45.5,-295 45.5,-295 45.5,-283 45.5,-283 45.5,-277 51.5,-271 57.5,-271 57.5,-271 348.5,-271 348.5,-271 354.5,-271 360.5,-277 360.5,-283 360.5,-283 360.5,-295 360.5,-295 360.5,-301 354.5,-307 348.5,-307"/>
<text text-anchor="middle" x="203" y="-285.3" font-family="Times,serif" font-size="14.00">Solid and straightforward roadmap/vision</text>
</a>
</g>
</g>
<!-- &lt;https://github.com/gnolang/gno/issues/1375&gt; -->
<g id="node7" class="node">
<title>&lt;https://github.com/gnolang/gno/issues/1375&gt;</title>
<g id="a_node7"><a xlink:href="<https://github.com/gnolang/gno/issues/1375>" xlink:title="[RFC] Embrace secure signing methods">
<path fill="none" stroke="black" d="M348.5,-361C348.5,-361 57.5,-361 57.5,-361 51.5,-361 45.5,-355 45.5,-349 45.5,-349 45.5,-337 45.5,-337 45.5,-331 51.5,-325 57.5,-325 57.5,-325 348.5,-325 348.5,-325 354.5,-325 360.5,-331 360.5,-337 360.5,-337 360.5,-349 360.5,-349 360.5,-355 354.5,-361 348.5,-361"/>
<text text-anchor="middle" x="203" y="-339.3" font-family="Times,serif" font-size="14.00">[RFC] Embrace secure signing methods</text>
</a>
</g>
</g>
<!-- &lt;https://github.com/gnolang/gno/issues/2025&gt; -->
<g id="node8" class="node">
<title>&lt;https://github.com/gnolang/gno/issues/2025&gt;</title>
<g id="a_node8"><a xlink:href="<https://github.com/gnolang/gno/issues/2025>" xlink:title="Clarify gRPC and Amino">
<path fill="none" stroke="black" d="M285.5,-415C285.5,-415 120.5,-415 120.5,-415 114.5,-415 108.5,-409 108.5,-403 108.5,-403 108.5,-391 108.5,-391 108.5,-385 114.5,-379 120.5,-379 120.5,-379 285.5,-379 285.5,-379 291.5,-379 297.5,-385 297.5,-391 297.5,-391 297.5,-403 297.5,-403 297.5,-409 291.5,-415 285.5,-415"/>
<text text-anchor="middle" x="203" y="-393.3" font-family="Times,serif" font-size="14.00">Clarify gRPC and Amino</text>
</a>
</g>
</g>
<!-- &lt;https://github.com/gnolang/roadmap/issues/11&gt; -->
<g id="node9" class="node">
<title>&lt;https://github.com/gnolang/roadmap/issues/11&gt;</title>
<g id="a_node9"><a xlink:href="<https://github.com/gnolang/roadmap/issues/11>" xlink:title="Proof&#45;of&#45;Contributions MVP">
<path fill="none" stroke="black" d="M297,-199C297,-199 109,-199 109,-199 103,-199 97,-193 97,-187 97,-187 97,-175 97,-175 97,-169 103,-163 109,-163 109,-163 297,-163 297,-163 303,-163 309,-169 309,-175 309,-175 309,-187 309,-187 309,-193 303,-199 297,-199"/>
<text text-anchor="middle" x="203" y="-177.3" font-family="Times,serif" font-size="14.00">Proof&#45;of&#45;Contributions MVP</text>
</a>
</g>
</g>
<!-- &lt;https://github.com/gnolang/roadmap/issues/11&gt;&#45;&gt;&lt;https://github.com/gnolang/roadmap/issues/1&gt; -->
<g id="edge3" class="edge">
<title>&lt;https://github.com/gnolang/roadmap/issues/11&gt;&#45;&gt;&lt;https://github.com/gnolang/roadmap/issues/1&gt;</title>
<path fill="none" stroke="black" d="M309.24,-189.43C348.15,-192.55 392.32,-196.09 431.59,-199.23"/>
<polygon fill="black" stroke="black" points="431.48,-202.74 441.73,-200.05 432.04,-195.76 431.48,-202.74"/>
</g>
</g>
</svg>
