<?xml version="1.0" encoding="UTF-8" standalone="no"?>
<!DOCTYPE svg PUBLIC "-//W3C//DTD SVG 1.1//EN"
 "http://www.w3.org/Graphics/SVG/1.1/DTD/svg11.dtd">
<!-- Generated by graphviz version 2.43.0 (0)
 -->
<!-- Pages: 1 -->
<svg width="1058pt" height="423pt"
 viewBox="0.00 0.00 1058.00 423.00" xmlns="http://www.w3.org/2000/svg" xmlns:xlink="http://www.w3.org/1999/xlink">
<g id="graph0" class="graph" transform="scale(1 1) rotate(0) translate(4 419)">
<polygon fill="white" stroke="transparent" points="-4,4 -4,-419 1054,-419 1054,4 -4,4"/>
<text text-anchor="middle" x="525" y="-7.8" font-family="Times,serif" font-size="14.00">https://github.com/gnolang/roadmap &#45; generated on 2024/10/24 12:09</text>
<!-- &lt;https://github.com/gnolang/gno/issues/1375&gt; -->
<g id="node1" class="node">
<title>&lt;https://github.com/gnolang/gno/issues/1375&gt;</title>
<g id="a_node1"><a xlink:href="<https://github.com/gnolang/gno/issues/1375>" xlink:title="[RFC] Embrace secure signing methods">
<path fill="none" stroke="black" d="M348.5,-91C348.5,-91 57.5,-91 57.5,-91 51.5,-91 45.5,-85 45.5,-79 45.5,-79 45.5,-67 45.5,-67 45.5,-61 51.5,-55 57.5,-55 57.5,-55 348.5,-55 348.5,-55 354.5,-55 360.5,-61 360.5,-67 360.5,-67 360.5,-79 360.5,-79 360.5,-85 354.5,-91 348.5,-91"/>
<text text-anchor="middle" x="203" y="-69.3" font-family="Times,serif" font-size="14.00">[RFC] Embrace secure signing methods</text>
</a>
</g>
</g>
<!-- &lt;https://github.com/gnolang/gno/issues/1509&gt; -->
<g id="node2" class="node">
<title>&lt;https://github.com/gnolang/gno/issues/1509&gt;</title>
<g id="a_node2"><a xlink:href="<https://github.com/gnolang/gno/issues/1509>" xlink:title="gnodev time.Now() values are not preserved on reload">
<path fill="none" stroke="black" d="M394,-145C394,-145 12,-145 12,-145 6,-145 0,-139 0,-133 0,-133 0,-121 0,-121 0,-115 6,-109 12,-109 12,-109 394,-109 394,-109 400,-109 406,-115 406,-121 406,-121 406,-133 406,-133 406,-139 400,-145 394,-145"/>
<text text-anchor="middle" x="203" y="-123.3" font-family="Times,serif" font-size="14.00">gnodev time.Now() values are not preserved on reload</text>
</a>
</g>
</g>
<!-- &lt;https://github.com/gnolang/gno/issues/2025&gt; -->
<g id="node3" class="node">
<title>&lt;https://github.com/gnolang/gno/issues/2025&gt;</title>
<g id="a_node3"><a xlink:href="<https://github.com/gnolang/gno/issues/2025>" xlink:title="Clarify gRPC and Amino">
<path fill="none" stroke="black" d="M285.5,-199C285.5,-199 120.5,-199 120.5,-199 114.5,-199 108.5,-193 108.5,-187 108.5,-187 108.5,-175 108.5,-175 108.5,-169 114.5,-163 120.5,-163 120.5,-163 285.5,-163 285.5,-163 291.5,-163 297.5,-169 297.5,-175 297.5,-175 297.5,-187 297.5,-187 297.5,-193 291.5,-199 285.5,-199"/>
<text text-anchor="middle" x="203" y="-177.3" font-family="Times,serif" font-size="14.00">Clarify gRPC and Amino</text>
</a>
</g>
</g>
<!-- &lt;https://github.com/gnolang/roadmap/issues/1&gt; -->
<g id="node4" class="node">
<title>&lt;https://github.com/gnolang/roadmap/issues/1&gt;</title>
<g id="a_node4"><a xlink:href="<https://github.com/gnolang/roadmap/issues/1>" xlink:title="Launch Gno.land mainnet">
<path fill="none" stroke="black" d="M630,-280C630,-280 454,-280 454,-280 448,-280 442,-274 442,-268 442,-268 442,-256 442,-256 442,-250 448,-244 454,-244 454,-244 630,-244 630,-244 636,-244 642,-250 642,-256 642,-256 642,-268 642,-268 642,-274 636,-280 630,-280"/>
<text text-anchor="middle" x="542" y="-258.3" font-family="Times,serif" font-size="14.00">Launch Gno.land mainnet</text>
</a>
</g>
</g>
<!-- &lt;https://github.com/gnolang/roadmap/issues/4&gt; -->
<g id="node5" class="node">
<title>&lt;https://github.com/gnolang/roadmap/issues/4&gt;</title>
<g id="a_node5"><a xlink:href="<https://github.com/gnolang/roadmap/issues/4>" xlink:title="IBC1 on Gno.land">
<path fill="none" stroke="black" d="M808,-280C808,-280 690,-280 690,-280 684,-280 678,-274 678,-268 678,-268 678,-256 678,-256 678,-250 684,-244 690,-244 690,-244 808,-244 808,-244 814,-244 820,-250 820,-256 820,-256 820,-268 820,-268 820,-274 814,-280 808,-280"/>
<text text-anchor="middle" x="749" y="-258.3" font-family="Times,serif" font-size="14.00">IBC1 on Gno.land</text>
</a>
</g>
</g>
<!-- &lt;https://github.com/gnolang/roadmap/issues/1&gt;&#45;&gt;&lt;https://github.com/gnolang/roadmap/issues/4&gt; -->
<g id="edge1" class="edge">
<title>&lt;https://github.com/gnolang/roadmap/issues/1&gt;&#45;&gt;&lt;https://github.com/gnolang/roadmap/issues/4&gt;</title>
<path fill="none" stroke="black" d="M642.2,-262C650.77,-262 659.38,-262 667.77,-262"/>
<polygon fill="black" stroke="black" points="667.89,-265.5 677.89,-262 667.89,-258.5 667.89,-265.5"/>
</g>
<!-- &lt;https://github.com/gnolang/roadmap/issues/30&gt; -->
<g id="node7" class="node">
<title>&lt;https://github.com/gnolang/roadmap/issues/30&gt;</title>
<g id="a_node7"><a xlink:href="<https://github.com/gnolang/roadmap/issues/30>" xlink:title="GnoVM extensions, IBCx">
<path fill="none" stroke="black" d="M1038,-280C1038,-280 868,-280 868,-280 862,-280 856,-274 856,-268 856,-268 856,-256 856,-256 856,-250 862,-244 868,-244 868,-244 1038,-244 1038,-244 1044,-244 1050,-250 1050,-256 1050,-256 1050,-268 1050,-268 1050,-274 1044,-280 1038,-280"/>
<text text-anchor="middle" x="953" y="-258.3" font-family="Times,serif" font-size="14.00">GnoVM extensions, IBCx</text>
</a>
</g>
</g>
<!-- &lt;https://github.com/gnolang/roadmap/issues/4&gt;&#45;&gt;&lt;https://github.com/gnolang/roadmap/issues/30&gt; -->
<g id="edge3" class="edge">
<title>&lt;https://github.com/gnolang/roadmap/issues/4&gt;&#45;&gt;&lt;https://github.com/gnolang/roadmap/issues/30&gt;</title>
<path fill="none" stroke="black" d="M820.08,-262C828.35,-262 836.93,-262 845.56,-262"/>
<polygon fill="black" stroke="black" points="845.71,-265.5 855.71,-262 845.71,-258.5 845.71,-265.5"/>
</g>
<!-- &lt;https://github.com/gnolang/roadmap/issues/11&gt; -->
<g id="node6" class="node">
<title>&lt;https://github.com/gnolang/roadmap/issues/11&gt;</title>
<g id="a_node6"><a xlink:href="<https://github.com/gnolang/roadmap/issues/11>" xlink:title="Proof&#45;of&#45;Contributions MVP">
<path fill="none" stroke="black" d="M297,-307C297,-307 109,-307 109,-307 103,-307 97,-301 97,-295 97,-295 97,-283 97,-283 97,-277 103,-271 109,-271 109,-271 297,-271 297,-271 303,-271 309,-277 309,-283 309,-283 309,-295 309,-295 309,-301 303,-307 297,-307"/>
<text text-anchor="middle" x="203" y="-285.3" font-family="Times,serif" font-size="14.00">Proof&#45;of&#45;Contributions MVP</text>
</a>
</g>
</g>
<!-- &lt;https://github.com/gnolang/roadmap/issues/11&gt;&#45;&gt;&lt;https://github.com/gnolang/roadmap/issues/1&gt; -->
<g id="edge2" class="edge">
<title>&lt;https://github.com/gnolang/roadmap/issues/11&gt;&#45;&gt;&lt;https://github.com/gnolang/roadmap/issues/1&gt;</title>
<path fill="none" stroke="black" d="M309.24,-280.57C348.15,-277.45 392.32,-273.91 431.59,-270.77"/>
<polygon fill="black" stroke="black" points="432.04,-274.24 441.73,-269.95 431.48,-267.26 432.04,-274.24"/>
</g>
<!-- &lt;https://github.com/gnolang/gno/issues/407&gt; -->
<g id="node8" class="node">
<title>&lt;https://github.com/gnolang/gno/issues/407&gt;</title>
<g id="a_node8"><a xlink:href="<https://github.com/gnolang/gno/issues/407>" xlink:title="GOR — Evaluation DAO">
<path fill="none" stroke="black" d="M284,-361C284,-361 122,-361 122,-361 116,-361 110,-355 110,-349 110,-349 110,-337 110,-337 110,-331 116,-325 122,-325 122,-325 284,-325 284,-325 290,-325 296,-331 296,-337 296,-337 296,-349 296,-349 296,-355 290,-361 284,-361"/>
<text text-anchor="middle" x="203" y="-339.3" font-family="Times,serif" font-size="14.00">GOR — Evaluation DAO</text>
</a>
</g>
</g>
<!-- &lt;https://github.com/gnolang/roadmap/issues/3&gt; -->
<g id="node9" class="node">
<title>&lt;https://github.com/gnolang/roadmap/issues/3&gt;</title>
<g id="a_node9"><a xlink:href="<https://github.com/gnolang/roadmap/issues/3>" xlink:title="Tendermint2 MVP is finished">
<path fill="none" stroke="black" d="M303,-253C303,-253 103,-253 103,-253 97,-253 91,-247 91,-241 91,-241 91,-229 91,-229 91,-223 97,-217 103,-217 103,-217 303,-217 303,-217 309,-217 315,-223 315,-229 315,-229 315,-241 315,-241 315,-247 309,-253 303,-253"/>
<text text-anchor="middle" x="203" y="-231.3" font-family="Times,serif" font-size="14.00">Tendermint2 MVP is finished</text>
</a>
</g>
</g>
<!-- &lt;https://github.com/gnolang/roadmap/issues/3&gt;&#45;&gt;&lt;https://github.com/gnolang/roadmap/issues/1&gt; -->
<g id="edge4" class="edge">
<title>&lt;https://github.com/gnolang/roadmap/issues/3&gt;&#45;&gt;&lt;https://github.com/gnolang/roadmap/issues/1&gt;</title>
<path fill="none" stroke="black" d="M315.28,-243.92C352.61,-246.91 394.19,-250.24 431.38,-253.22"/>
<polygon fill="black" stroke="black" points="431.5,-256.74 441.75,-254.05 432.06,-249.76 431.5,-256.74"/>
</g>
<!-- &lt;https://github.com/gnolang/roadmap/issues/6&gt; -->
<g id="node10" class="node">
<title>&lt;https://github.com/gnolang/roadmap/issues/6&gt;</title>
<g id="a_node10"><a xlink:href="<https://github.com/gnolang/roadmap/issues/6>" xlink:title="Solid and straightforward roadmap/vision">
<path fill="none" stroke="black" d="M348.5,-415C348.5,-415 57.5,-415 57.5,-415 51.5,-415 45.5,-409 45.5,-403 45.5,-403 45.5,-391 45.5,-391 45.5,-385 51.5,-379 57.5,-379 57.5,-379 348.5,-379 348.5,-379 354.5,-379 360.5,-385 360.5,-391 360.5,-391 360.5,-403 360.5,-403 360.5,-409 354.5,-415 348.5,-415"/>
<text text-anchor="middle" x="203" y="-393.3" font-family="Times,serif" font-size="14.00">Solid and straightforward roadmap/vision</text>
</a>
</g>
</g>
</g>
</svg>
