<?xml version="1.0" encoding="UTF-8" standalone="no"?>
<!DOCTYPE svg PUBLIC "-//W3C//DTD SVG 1.1//EN"
 "http://www.w3.org/Graphics/SVG/1.1/DTD/svg11.dtd">
<!-- Generated by graphviz version 2.43.0 (0)
 -->
<!-- Pages: 1 -->
<svg width="2071pt" height="288pt"
 viewBox="0.00 0.00 2071.00 288.00" xmlns="http://www.w3.org/2000/svg" xmlns:xlink="http://www.w3.org/1999/xlink">
<g id="graph0" class="graph" transform="scale(1 1) rotate(0) translate(4 284)">
<polygon fill="white" stroke="transparent" points="-4,4 -4,-284 2067,-284 2067,4 -4,4"/>
<text text-anchor="middle" x="1031.5" y="-7.8" font-family="Times,serif" font-size="14.00">https://github.com/gnolang/roadmap &#45; generated on 2024/10/24 12:09</text>
<!-- &lt;https://github.com/gnolang/roadmap/issues/9&gt; -->
<g id="node1" class="node">
<title>&lt;https://github.com/gnolang/roadmap/issues/9&gt;</title>
<g id="a_node1"><a xlink:href="<https://github.com/gnolang/roadmap/issues/9>" xlink:title="Tendermint2 is stable, versatile and fully independent from Gno">
<path fill="none" stroke="black" d="M1442,-199C1442,-199 990,-199 990,-199 984,-199 978,-193 978,-187 978,-187 978,-175 978,-175 978,-169 984,-163 990,-163 990,-163 1442,-163 1442,-163 1448,-163 1454,-169 1454,-175 1454,-175 1454,-187 1454,-187 1454,-193 1448,-199 1442,-199"/>
<text text-anchor="middle" x="1216" y="-177.3" font-family="Times,serif" font-size="14.00">Tendermint2 is stable, versatile and fully independent from Gno</text>
</a>
</g>
</g>
<!-- &lt;https://github.com/gnolang/roadmap/issues/8&gt; -->
<g id="node2" class="node">
<title>&lt;https://github.com/gnolang/roadmap/issues/8&gt;</title>
<g id="a_node2"><a xlink:href="<https://github.com/gnolang/roadmap/issues/8>" xlink:title="Gno.land is designed for longevity">
<path fill="none" stroke="black" d="M1739,-240C1739,-240 1502,-240 1502,-240 1496,-240 1490,-234 1490,-228 1490,-228 1490,-216 1490,-216 1490,-210 1496,-204 1502,-204 1502,-204 1739,-204 1739,-204 1745,-204 1751,-210 1751,-216 1751,-216 1751,-228 1751,-228 1751,-234 1745,-240 1739,-240"/>
<text text-anchor="middle" x="1620.5" y="-218.3" font-family="Times,serif" font-size="14.00">Gno.land is designed for longevity</text>
</a>
</g>
</g>
<!-- &lt;https://github.com/gnolang/roadmap/issues/9&gt;&#45;&gt;&lt;https://github.com/gnolang/roadmap/issues/8&gt; -->
<g id="edge1" class="edge">
<title>&lt;https://github.com/gnolang/roadmap/issues/9&gt;&#45;&gt;&lt;https://github.com/gnolang/roadmap/issues/8&gt;</title>
<path fill="none" stroke="black" d="M1393.84,-199.01C1422.6,-201.94 1452.03,-204.94 1479.75,-207.76"/>
<polygon fill="black" stroke="black" points="1479.57,-211.26 1489.88,-208.8 1480.28,-204.3 1479.57,-211.26"/>
</g>
<!-- &lt;https://github.com/gnolang/roadmap/issues/11&gt; -->
<g id="node3" class="node">
<title>&lt;https://github.com/gnolang/roadmap/issues/11&gt;</title>
<g id="a_node3"><a xlink:href="<https://github.com/gnolang/roadmap/issues/11>" xlink:title="Proof&#45;of&#45;Contributions MVP">
<path fill="none" stroke="black" d="M528.5,-253C528.5,-253 340.5,-253 340.5,-253 334.5,-253 328.5,-247 328.5,-241 328.5,-241 328.5,-229 328.5,-229 328.5,-223 334.5,-217 340.5,-217 340.5,-217 528.5,-217 528.5,-217 534.5,-217 540.5,-223 540.5,-229 540.5,-229 540.5,-241 540.5,-241 540.5,-247 534.5,-253 528.5,-253"/>
<text text-anchor="middle" x="434.5" y="-231.3" font-family="Times,serif" font-size="14.00">Proof&#45;of&#45;Contributions MVP</text>
</a>
</g>
</g>
<!-- &lt;https://github.com/gnolang/roadmap/issues/1&gt; -->
<g id="node4" class="node">
<title>&lt;https://github.com/gnolang/roadmap/issues/1&gt;</title>
<g id="a_node4"><a xlink:href="<https://github.com/gnolang/roadmap/issues/1>" xlink:title="Launch Gno.land mainnet">
<path fill="none" stroke="black" d="M872.5,-172C872.5,-172 696.5,-172 696.5,-172 690.5,-172 684.5,-166 684.5,-160 684.5,-160 684.5,-148 684.5,-148 684.5,-142 690.5,-136 696.5,-136 696.5,-136 872.5,-136 872.5,-136 878.5,-136 884.5,-142 884.5,-148 884.5,-148 884.5,-160 884.5,-160 884.5,-166 878.5,-172 872.5,-172"/>
<text text-anchor="middle" x="784.5" y="-150.3" font-family="Times,serif" font-size="14.00">Launch Gno.land mainnet</text>
</a>
</g>
</g>
<!-- &lt;https://github.com/gnolang/roadmap/issues/11&gt;&#45;&gt;&lt;https://github.com/gnolang/roadmap/issues/1&gt; -->
<g id="edge2" class="edge">
<title>&lt;https://github.com/gnolang/roadmap/issues/11&gt;&#45;&gt;&lt;https://github.com/gnolang/roadmap/issues/1&gt;</title>
<path fill="none" stroke="black" d="M540.76,-218.22C557.62,-215.1 574.83,-211.66 591,-208 632.46,-198.61 678.32,-185.84 714.87,-175.08"/>
<polygon fill="black" stroke="black" points="716.33,-178.3 724.92,-172.1 714.34,-171.59 716.33,-178.3"/>
</g>
<!-- &lt;https://github.com/gnolang/roadmap/issues/1&gt;&#45;&gt;&lt;https://github.com/gnolang/roadmap/issues/9&gt; -->
<g id="edge6" class="edge">
<title>&lt;https://github.com/gnolang/roadmap/issues/1&gt;&#45;&gt;&lt;https://github.com/gnolang/roadmap/issues/9&gt;</title>
<path fill="none" stroke="black" d="M884.58,-160.23C909.84,-161.82 938.15,-163.6 967.28,-165.43"/>
<polygon fill="black" stroke="black" points="967.42,-168.94 977.62,-166.08 967.86,-161.96 967.42,-168.94"/>
</g>
<!-- &lt;https://github.com/gnolang/roadmap/issues/4&gt; -->
<g id="node6" class="node">
<title>&lt;https://github.com/gnolang/roadmap/issues/4&gt;</title>
<g id="a_node6"><a xlink:href="<https://github.com/gnolang/roadmap/issues/4>" xlink:title="IBC1 on Gno.land">
<path fill="none" stroke="black" d="M1275,-145C1275,-145 1157,-145 1157,-145 1151,-145 1145,-139 1145,-133 1145,-133 1145,-121 1145,-121 1145,-115 1151,-109 1157,-109 1157,-109 1275,-109 1275,-109 1281,-109 1287,-115 1287,-121 1287,-121 1287,-133 1287,-133 1287,-139 1281,-145 1275,-145"/>
<text text-anchor="middle" x="1216" y="-123.3" font-family="Times,serif" font-size="14.00">IBC1 on Gno.land</text>
</a>
</g>
</g>
<!-- &lt;https://github.com/gnolang/roadmap/issues/1&gt;&#45;&gt;&lt;https://github.com/gnolang/roadmap/issues/4&gt; -->
<g id="edge7" class="edge">
<title>&lt;https://github.com/gnolang/roadmap/issues/1&gt;&#45;&gt;&lt;https://github.com/gnolang/roadmap/issues/4&gt;</title>
<path fill="none" stroke="black" d="M884.58,-147.77C960.49,-143 1063.89,-136.5 1134.69,-132.05"/>
<polygon fill="black" stroke="black" points="1135.13,-135.53 1144.89,-131.41 1134.69,-128.54 1135.13,-135.53"/>
</g>
<!-- &lt;https://github.com/gnolang/roadmap/issues/32&gt; -->
<g id="node5" class="node">
<title>&lt;https://github.com/gnolang/roadmap/issues/32&gt;</title>
<g id="a_node5"><a xlink:href="<https://github.com/gnolang/roadmap/issues/32>" xlink:title="GoR: Robust documentation and tutorials">
<path fill="none" stroke="black" d="M579,-199C579,-199 290,-199 290,-199 284,-199 278,-193 278,-187 278,-187 278,-175 278,-175 278,-169 284,-163 290,-163 290,-163 579,-163 579,-163 585,-163 591,-169 591,-175 591,-175 591,-187 591,-187 591,-193 585,-199 579,-199"/>
<text text-anchor="middle" x="434.5" y="-177.3" font-family="Times,serif" font-size="14.00">GoR: Robust documentation and tutorials</text>
</a>
</g>
</g>
<!-- &lt;https://github.com/gnolang/roadmap/issues/32&gt;&#45;&gt;&lt;https://github.com/gnolang/roadmap/issues/1&gt; -->
<g id="edge3" class="edge">
<title>&lt;https://github.com/gnolang/roadmap/issues/32&gt;&#45;&gt;&lt;https://github.com/gnolang/roadmap/issues/1&gt;</title>
<path fill="none" stroke="black" d="M591.18,-168.92C619.26,-166.74 647.99,-164.51 674.39,-162.47"/>
<polygon fill="black" stroke="black" points="674.69,-165.95 684.38,-161.69 674.14,-158.97 674.69,-165.95"/>
</g>
<!-- &lt;https://github.com/gnolang/roadmap/issues/5&gt; -->
<g id="node7" class="node">
<title>&lt;https://github.com/gnolang/roadmap/issues/5&gt;</title>
<g id="a_node7"><a xlink:href="<https://github.com/gnolang/roadmap/issues/5>" xlink:title="ICSv1 on Gno.land">
<path fill="none" stroke="black" d="M1683,-159C1683,-159 1558,-159 1558,-159 1552,-159 1546,-153 1546,-147 1546,-147 1546,-135 1546,-135 1546,-129 1552,-123 1558,-123 1558,-123 1683,-123 1683,-123 1689,-123 1695,-129 1695,-135 1695,-135 1695,-147 1695,-147 1695,-153 1689,-159 1683,-159"/>
<text text-anchor="middle" x="1620.5" y="-137.3" font-family="Times,serif" font-size="14.00">ICSv1 on Gno.land</text>
</a>
</g>
</g>
<!-- &lt;https://github.com/gnolang/roadmap/issues/4&gt;&#45;&gt;&lt;https://github.com/gnolang/roadmap/issues/5&gt; -->
<g id="edge4" class="edge">
<title>&lt;https://github.com/gnolang/roadmap/issues/4&gt;&#45;&gt;&lt;https://github.com/gnolang/roadmap/issues/5&gt;</title>
<path fill="none" stroke="black" d="M1287.11,-129.44C1356.27,-131.84 1462.03,-135.52 1535.61,-138.08"/>
<polygon fill="black" stroke="black" points="1535.65,-141.59 1545.77,-138.44 1535.9,-134.59 1535.65,-141.59"/>
</g>
<!-- &lt;https://github.com/gnolang/roadmap/issues/30&gt; -->
<g id="node8" class="node">
<title>&lt;https://github.com/gnolang/roadmap/issues/30&gt;</title>
<g id="a_node8"><a xlink:href="<https://github.com/gnolang/roadmap/issues/30>" xlink:title="GnoVM extensions, IBCx">
<path fill="none" stroke="black" d="M1705.5,-105C1705.5,-105 1535.5,-105 1535.5,-105 1529.5,-105 1523.5,-99 1523.5,-93 1523.5,-93 1523.5,-81 1523.5,-81 1523.5,-75 1529.5,-69 1535.5,-69 1535.5,-69 1705.5,-69 1705.5,-69 1711.5,-69 1717.5,-75 1717.5,-81 1717.5,-81 1717.5,-93 1717.5,-93 1717.5,-99 1711.5,-105 1705.5,-105"/>
<text text-anchor="middle" x="1620.5" y="-83.3" font-family="Times,serif" font-size="14.00">GnoVM extensions, IBCx</text>
</a>
</g>
</g>
<!-- &lt;https://github.com/gnolang/roadmap/issues/4&gt;&#45;&gt;&lt;https://github.com/gnolang/roadmap/issues/30&gt; -->
<g id="edge5" class="edge">
<title>&lt;https://github.com/gnolang/roadmap/issues/4&gt;&#45;&gt;&lt;https://github.com/gnolang/roadmap/issues/30&gt;</title>
<path fill="none" stroke="black" d="M1287.11,-120.03C1349.47,-113.83 1441.59,-104.68 1513.05,-97.58"/>
<polygon fill="black" stroke="black" points="1513.83,-101.02 1523.43,-96.55 1513.14,-94.05 1513.83,-101.02"/>
</g>
<!-- &lt;https://github.com/gnolang/roadmap/issues/10&gt; -->
<g id="node15" class="node">
<title>&lt;https://github.com/gnolang/roadmap/issues/10&gt;</title>
<g id="a_node15"><a xlink:href="<https://github.com/gnolang/roadmap/issues/10>" xlink:title="VM&#45;agnostic Interchain explorations">
<path fill="none" stroke="black" d="M2051,-105C2051,-105 1799,-105 1799,-105 1793,-105 1787,-99 1787,-93 1787,-93 1787,-81 1787,-81 1787,-75 1793,-69 1799,-69 1799,-69 2051,-69 2051,-69 2057,-69 2063,-75 2063,-81 2063,-81 2063,-93 2063,-93 2063,-99 2057,-105 2051,-105"/>
<text text-anchor="middle" x="1925" y="-83.3" font-family="Times,serif" font-size="14.00">VM&#45;agnostic Interchain explorations</text>
</a>
</g>
</g>
<!-- &lt;https://github.com/gnolang/roadmap/issues/30&gt;&#45;&gt;&lt;https://github.com/gnolang/roadmap/issues/10&gt; -->
<g id="edge15" class="edge">
<title>&lt;https://github.com/gnolang/roadmap/issues/30&gt;&#45;&gt;&lt;https://github.com/gnolang/roadmap/issues/10&gt;</title>
<path fill="none" stroke="black" d="M1717.63,-87C1736.5,-87 1756.69,-87 1776.79,-87"/>
<polygon fill="black" stroke="black" points="1776.97,-90.5 1786.97,-87 1776.97,-83.5 1776.97,-90.5"/>
</g>
<!-- &lt;https://github.com/gnolang/roadmap/issues/31&gt; -->
<g id="node9" class="node">
<title>&lt;https://github.com/gnolang/roadmap/issues/31&gt;</title>
<g id="a_node9"><a xlink:href="<https://github.com/gnolang/roadmap/issues/31>" xlink:title="GoR: Governance modules MvP">
<path fill="none" stroke="black" d="M230,-280C230,-280 12,-280 12,-280 6,-280 0,-274 0,-268 0,-268 0,-256 0,-256 0,-250 6,-244 12,-244 12,-244 230,-244 230,-244 236,-244 242,-250 242,-256 242,-256 242,-268 242,-268 242,-274 236,-280 230,-280"/>
<text text-anchor="middle" x="121" y="-258.3" font-family="Times,serif" font-size="14.00">GoR: Governance modules MvP</text>
</a>
</g>
</g>
<!-- &lt;https://github.com/gnolang/roadmap/issues/31&gt;&#45;&gt;&lt;https://github.com/gnolang/roadmap/issues/11&gt; -->
<g id="edge8" class="edge">
<title>&lt;https://github.com/gnolang/roadmap/issues/31&gt;&#45;&gt;&lt;https://github.com/gnolang/roadmap/issues/11&gt;</title>
<path fill="none" stroke="black" d="M242.43,-251.56C267.34,-249.4 293.51,-247.13 318.23,-244.99"/>
<polygon fill="black" stroke="black" points="318.69,-248.46 328.35,-244.11 318.09,-241.49 318.69,-248.46"/>
</g>
<!-- &lt;https://github.com/gnolang/roadmap/issues/33&gt; -->
<g id="node10" class="node">
<title>&lt;https://github.com/gnolang/roadmap/issues/33&gt;</title>
<g id="a_node10"><a xlink:href="<https://github.com/gnolang/roadmap/issues/33>" xlink:title="Strong stdlibs">
<path fill="none" stroke="black" d="M168,-145C168,-145 74,-145 74,-145 68,-145 62,-139 62,-133 62,-133 62,-121 62,-121 62,-115 68,-109 74,-109 74,-109 168,-109 168,-109 174,-109 180,-115 180,-121 180,-121 180,-133 180,-133 180,-139 174,-145 168,-145"/>
<text text-anchor="middle" x="121" y="-123.3" font-family="Times,serif" font-size="14.00">Strong stdlibs</text>
</a>
</g>
</g>
<!-- &lt;https://github.com/gnolang/roadmap/issues/2&gt; -->
<g id="node11" class="node">
<title>&lt;https://github.com/gnolang/roadmap/issues/2&gt;</title>
<g id="a_node11"><a xlink:href="<https://github.com/gnolang/roadmap/issues/2>" xlink:title="GnoVM MVP is finished">
<path fill="none" stroke="black" d="M515,-145C515,-145 354,-145 354,-145 348,-145 342,-139 342,-133 342,-133 342,-121 342,-121 342,-115 348,-109 354,-109 354,-109 515,-109 515,-109 521,-109 527,-115 527,-121 527,-121 527,-133 527,-133 527,-139 521,-145 515,-145"/>
<text text-anchor="middle" x="434.5" y="-123.3" font-family="Times,serif" font-size="14.00">GnoVM MVP is finished</text>
</a>
</g>
</g>
<!-- &lt;https://github.com/gnolang/roadmap/issues/33&gt;&#45;&gt;&lt;https://github.com/gnolang/roadmap/issues/2&gt; -->
<g id="edge9" class="edge">
<title>&lt;https://github.com/gnolang/roadmap/issues/33&gt;&#45;&gt;&lt;https://github.com/gnolang/roadmap/issues/2&gt;</title>
<path fill="none" stroke="black" d="M180.23,-127C222.73,-127 281.45,-127 331.64,-127"/>
<polygon fill="black" stroke="black" points="331.89,-130.5 341.89,-127 331.89,-123.5 331.89,-130.5"/>
</g>
<!-- &lt;https://github.com/gnolang/roadmap/issues/2&gt;&#45;&gt;&lt;https://github.com/gnolang/roadmap/issues/1&gt; -->
<g id="edge13" class="edge">
<title>&lt;https://github.com/gnolang/roadmap/issues/2&gt;&#45;&gt;&lt;https://github.com/gnolang/roadmap/issues/1&gt;</title>
<path fill="none" stroke="black" d="M527.39,-134.13C572.41,-137.62 626.96,-141.85 674.12,-145.51"/>
<polygon fill="black" stroke="black" points="674.13,-149.03 684.37,-146.31 674.67,-142.05 674.13,-149.03"/>
</g>
<!-- &lt;https://github.com/gnolang/roadmap/issues/6&gt; -->
<g id="node12" class="node">
<title>&lt;https://github.com/gnolang/roadmap/issues/6&gt;</title>
<g id="a_node12"><a xlink:href="<https://github.com/gnolang/roadmap/issues/6>" xlink:title="Solid and straightforward roadmap/vision">
<path fill="none" stroke="black" d="M930,-253C930,-253 639,-253 639,-253 633,-253 627,-247 627,-241 627,-241 627,-229 627,-229 627,-223 633,-217 639,-217 639,-217 930,-217 930,-217 936,-217 942,-223 942,-229 942,-229 942,-241 942,-241 942,-247 936,-253 930,-253"/>
<text text-anchor="middle" x="784.5" y="-231.3" font-family="Times,serif" font-size="14.00">Solid and straightforward roadmap/vision</text>
</a>
</g>
</g>
<!-- &lt;https://github.com/gnolang/roadmap/issues/7&gt; -->
<g id="node13" class="node">
<title>&lt;https://github.com/gnolang/roadmap/issues/7&gt;</title>
<g id="a_node13"><a xlink:href="<https://github.com/gnolang/roadmap/issues/7>" xlink:title="Contributors&#39; DAO leads the project">
<path fill="none" stroke="black" d="M1340.5,-253C1340.5,-253 1091.5,-253 1091.5,-253 1085.5,-253 1079.5,-247 1079.5,-241 1079.5,-241 1079.5,-229 1079.5,-229 1079.5,-223 1085.5,-217 1091.5,-217 1091.5,-217 1340.5,-217 1340.5,-217 1346.5,-217 1352.5,-223 1352.5,-229 1352.5,-229 1352.5,-241 1352.5,-241 1352.5,-247 1346.5,-253 1340.5,-253"/>
<text text-anchor="middle" x="1216" y="-231.3" font-family="Times,serif" font-size="14.00">Contributors&#39; DAO leads the project</text>
</a>
</g>
</g>
<!-- &lt;https://github.com/gnolang/roadmap/issues/6&gt;&#45;&gt;&lt;https://github.com/gnolang/roadmap/issues/7&gt; -->
<g id="edge10" class="edge">
<title>&lt;https://github.com/gnolang/roadmap/issues/6&gt;&#45;&gt;&lt;https://github.com/gnolang/roadmap/issues/7&gt;</title>
<path fill="none" stroke="black" d="M942.08,-235C983.61,-235 1028.27,-235 1069.2,-235"/>
<polygon fill="black" stroke="black" points="1069.25,-238.5 1079.25,-235 1069.25,-231.5 1069.25,-238.5"/>
</g>
<!-- &lt;https://github.com/gnolang/roadmap/issues/7&gt;&#45;&gt;&lt;https://github.com/gnolang/roadmap/issues/8&gt; -->
<g id="edge12" class="edge">
<title>&lt;https://github.com/gnolang/roadmap/issues/7&gt;&#45;&gt;&lt;https://github.com/gnolang/roadmap/issues/8&gt;</title>
<path fill="none" stroke="black" d="M1352.71,-230.62C1393.61,-229.3 1438.57,-227.84 1479.73,-226.51"/>
<polygon fill="black" stroke="black" points="1479.95,-230.01 1489.83,-226.19 1479.72,-223.01 1479.95,-230.01"/>
</g>
<!-- &lt;https://github.com/gnolang/roadmap/issues/12&gt; -->
<g id="node14" class="node">
<title>&lt;https://github.com/gnolang/roadmap/issues/12&gt;</title>
<g id="a_node14"><a xlink:href="<https://github.com/gnolang/roadmap/issues/12>" xlink:title="GoR: Evaluation DAO MVP">
<path fill="none" stroke="black" d="M212.5,-226C212.5,-226 29.5,-226 29.5,-226 23.5,-226 17.5,-220 17.5,-214 17.5,-214 17.5,-202 17.5,-202 17.5,-196 23.5,-190 29.5,-190 29.5,-190 212.5,-190 212.5,-190 218.5,-190 224.5,-196 224.5,-202 224.5,-202 224.5,-214 224.5,-214 224.5,-220 218.5,-226 212.5,-226"/>
<text text-anchor="middle" x="121" y="-204.3" font-family="Times,serif" font-size="14.00">GoR: Evaluation DAO MVP</text>
</a>
</g>
</g>
<!-- &lt;https://github.com/gnolang/roadmap/issues/12&gt;&#45;&gt;&lt;https://github.com/gnolang/roadmap/issues/11&gt; -->
<g id="edge11" class="edge">
<title>&lt;https://github.com/gnolang/roadmap/issues/12&gt;&#45;&gt;&lt;https://github.com/gnolang/roadmap/issues/11&gt;</title>
<path fill="none" stroke="black" d="M224.86,-216.92C254.71,-219.5 287.51,-222.35 318.08,-225"/>
<polygon fill="black" stroke="black" points="318.09,-228.51 328.35,-225.89 318.69,-221.54 318.09,-228.51"/>
</g>
<!-- &lt;https://github.com/gnolang/roadmap/issues/3&gt; -->
<g id="node16" class="node">
<title>&lt;https://github.com/gnolang/roadmap/issues/3&gt;</title>
<g id="a_node16"><a xlink:href="<https://github.com/gnolang/roadmap/issues/3>" xlink:title="Tendermint2 MVP is finished">
<path fill="none" stroke="black" d="M534.5,-91C534.5,-91 334.5,-91 334.5,-91 328.5,-91 322.5,-85 322.5,-79 322.5,-79 322.5,-67 322.5,-67 322.5,-61 328.5,-55 334.5,-55 334.5,-55 534.5,-55 534.5,-55 540.5,-55 546.5,-61 546.5,-67 546.5,-67 546.5,-79 546.5,-79 546.5,-85 540.5,-91 534.5,-91"/>
<text text-anchor="middle" x="434.5" y="-69.3" font-family="Times,serif" font-size="14.00">Tendermint2 MVP is finished</text>
</a>
</g>
</g>
<!-- &lt;https://github.com/gnolang/roadmap/issues/3&gt;&#45;&gt;&lt;https://github.com/gnolang/roadmap/issues/1&gt; -->
<g id="edge14" class="edge">
<title>&lt;https://github.com/gnolang/roadmap/issues/3&gt;&#45;&gt;&lt;https://github.com/gnolang/roadmap/issues/1&gt;</title>
<path fill="none" stroke="black" d="M546.63,-90.88C561.59,-93.7 576.7,-96.76 591,-100 632.46,-109.39 678.32,-122.16 714.87,-132.92"/>
<polygon fill="black" stroke="black" points="714.34,-136.41 724.92,-135.9 716.33,-129.7 714.34,-136.41"/>
</g>
</g>
</svg>
