<?xml version="1.0" encoding="UTF-8" standalone="no"?>
<!DOCTYPE svg PUBLIC "-//W3C//DTD SVG 1.1//EN"
 "http://www.w3.org/Graphics/SVG/1.1/DTD/svg11.dtd">
<!-- Generated by graphviz version 2.43.0 (0)
 -->
<!-- Pages: 1 -->
<svg width="2071pt" height="288pt"
 viewBox="0.00 0.00 2071.00 288.00" xmlns="http://www.w3.org/2000/svg" xmlns:xlink="http://www.w3.org/1999/xlink">
<g id="graph0" class="graph" transform="scale(1 1) rotate(0) translate(4 284)">
<polygon fill="white" stroke="transparent" points="-4,4 -4,-284 2067,-284 2067,4 -4,4"/>
<text text-anchor="middle" x="1031.5" y="-7.8" font-family="Times,serif" font-size="14.00">https://github.com/gnolang/roadmap &#45; generated on 2024/10/17 12:09</text>
<!-- &lt;https://github.com/gnolang/roadmap/issues/12&gt; -->
<g id="node1" class="node">
<title>&lt;https://github.com/gnolang/roadmap/issues/12&gt;</title>
<g id="a_node1"><a xlink:href="<https://github.com/gnolang/roadmap/issues/12>" xlink:title="GoR: Evaluation DAO MVP">
<path fill="none" stroke="black" d="M212.5,-280C212.5,-280 29.5,-280 29.5,-280 23.5,-280 17.5,-274 17.5,-268 17.5,-268 17.5,-256 17.5,-256 17.5,-250 23.5,-244 29.5,-244 29.5,-244 212.5,-244 212.5,-244 218.5,-244 224.5,-250 224.5,-256 224.5,-256 224.5,-268 224.5,-268 224.5,-274 218.5,-280 212.5,-280"/>
<text text-anchor="middle" x="121" y="-258.3" font-family="Times,serif" font-size="14.00">GoR: Evaluation DAO MVP</text>
</a>
</g>
</g>
<!-- &lt;https://github.com/gnolang/roadmap/issues/11&gt; -->
<g id="node2" class="node">
<title>&lt;https://github.com/gnolang/roadmap/issues/11&gt;</title>
<g id="a_node2"><a xlink:href="<https://github.com/gnolang/roadmap/issues/11>" xlink:title="Proof&#45;of&#45;Contributions MVP">
<path fill="none" stroke="black" d="M528.5,-253C528.5,-253 340.5,-253 340.5,-253 334.5,-253 328.5,-247 328.5,-241 328.5,-241 328.5,-229 328.5,-229 328.5,-223 334.5,-217 340.5,-217 340.5,-217 528.5,-217 528.5,-217 534.5,-217 540.5,-223 540.5,-229 540.5,-229 540.5,-241 540.5,-241 540.5,-247 534.5,-253 528.5,-253"/>
<text text-anchor="middle" x="434.5" y="-231.3" font-family="Times,serif" font-size="14.00">Proof&#45;of&#45;Contributions MVP</text>
</a>
</g>
</g>
<!-- &lt;https://github.com/gnolang/roadmap/issues/12&gt;&#45;&gt;&lt;https://github.com/gnolang/roadmap/issues/11&gt; -->
<g id="edge1" class="edge">
<title>&lt;https://github.com/gnolang/roadmap/issues/12&gt;&#45;&gt;&lt;https://github.com/gnolang/roadmap/issues/11&gt;</title>
<path fill="none" stroke="black" d="M224.86,-253.08C254.71,-250.5 287.51,-247.65 318.08,-245"/>
<polygon fill="black" stroke="black" points="318.69,-248.46 328.35,-244.11 318.09,-241.49 318.69,-248.46"/>
</g>
<!-- &lt;https://github.com/gnolang/roadmap/issues/1&gt; -->
<g id="node4" class="node">
<title>&lt;https://github.com/gnolang/roadmap/issues/1&gt;</title>
<g id="a_node4"><a xlink:href="<https://github.com/gnolang/roadmap/issues/1>" xlink:title="Launch Gno.land mainnet">
<path fill="none" stroke="black" d="M872.5,-172C872.5,-172 696.5,-172 696.5,-172 690.5,-172 684.5,-166 684.5,-160 684.5,-160 684.5,-148 684.5,-148 684.5,-142 690.5,-136 696.5,-136 696.5,-136 872.5,-136 872.5,-136 878.5,-136 884.5,-142 884.5,-148 884.5,-148 884.5,-160 884.5,-160 884.5,-166 878.5,-172 872.5,-172"/>
<text text-anchor="middle" x="784.5" y="-150.3" font-family="Times,serif" font-size="14.00">Launch Gno.land mainnet</text>
</a>
</g>
</g>
<!-- &lt;https://github.com/gnolang/roadmap/issues/11&gt;&#45;&gt;&lt;https://github.com/gnolang/roadmap/issues/1&gt; -->
<g id="edge13" class="edge">
<title>&lt;https://github.com/gnolang/roadmap/issues/11&gt;&#45;&gt;&lt;https://github.com/gnolang/roadmap/issues/1&gt;</title>
<path fill="none" stroke="black" d="M540.76,-218.22C557.62,-215.1 574.83,-211.66 591,-208 632.46,-198.61 678.32,-185.84 714.87,-175.08"/>
<polygon fill="black" stroke="black" points="716.33,-178.3 724.92,-172.1 714.34,-171.59 716.33,-178.3"/>
</g>
<!-- &lt;https://github.com/gnolang/roadmap/issues/3&gt; -->
<g id="node3" class="node">
<title>&lt;https://github.com/gnolang/roadmap/issues/3&gt;</title>
<g id="a_node3"><a xlink:href="<https://github.com/gnolang/roadmap/issues/3>" xlink:title="Tendermint2 MVP is finished">
<path fill="none" stroke="black" d="M534.5,-199C534.5,-199 334.5,-199 334.5,-199 328.5,-199 322.5,-193 322.5,-187 322.5,-187 322.5,-175 322.5,-175 322.5,-169 328.5,-163 334.5,-163 334.5,-163 534.5,-163 534.5,-163 540.5,-163 546.5,-169 546.5,-175 546.5,-175 546.5,-187 546.5,-187 546.5,-193 540.5,-199 534.5,-199"/>
<text text-anchor="middle" x="434.5" y="-177.3" font-family="Times,serif" font-size="14.00">Tendermint2 MVP is finished</text>
</a>
</g>
</g>
<!-- &lt;https://github.com/gnolang/roadmap/issues/3&gt;&#45;&gt;&lt;https://github.com/gnolang/roadmap/issues/1&gt; -->
<g id="edge2" class="edge">
<title>&lt;https://github.com/gnolang/roadmap/issues/3&gt;&#45;&gt;&lt;https://github.com/gnolang/roadmap/issues/1&gt;</title>
<path fill="none" stroke="black" d="M546.57,-172.38C587.37,-169.22 633.5,-165.64 674.15,-162.48"/>
<polygon fill="black" stroke="black" points="674.66,-165.95 684.36,-161.69 674.12,-158.98 674.66,-165.95"/>
</g>
<!-- &lt;https://github.com/gnolang/roadmap/issues/9&gt; -->
<g id="node10" class="node">
<title>&lt;https://github.com/gnolang/roadmap/issues/9&gt;</title>
<g id="a_node10"><a xlink:href="<https://github.com/gnolang/roadmap/issues/9>" xlink:title="Tendermint2 is stable, versatile and fully independent from Gno">
<path fill="none" stroke="black" d="M1442,-145C1442,-145 990,-145 990,-145 984,-145 978,-139 978,-133 978,-133 978,-121 978,-121 978,-115 984,-109 990,-109 990,-109 1442,-109 1442,-109 1448,-109 1454,-115 1454,-121 1454,-121 1454,-133 1454,-133 1454,-139 1448,-145 1442,-145"/>
<text text-anchor="middle" x="1216" y="-123.3" font-family="Times,serif" font-size="14.00">Tendermint2 is stable, versatile and fully independent from Gno</text>
</a>
</g>
</g>
<!-- &lt;https://github.com/gnolang/roadmap/issues/1&gt;&#45;&gt;&lt;https://github.com/gnolang/roadmap/issues/9&gt; -->
<g id="edge11" class="edge">
<title>&lt;https://github.com/gnolang/roadmap/issues/1&gt;&#45;&gt;&lt;https://github.com/gnolang/roadmap/issues/9&gt;</title>
<path fill="none" stroke="black" d="M884.58,-147.77C909.84,-146.18 938.15,-144.4 967.28,-142.57"/>
<polygon fill="black" stroke="black" points="967.86,-146.04 977.62,-141.92 967.42,-139.06 967.86,-146.04"/>
</g>
<!-- &lt;https://github.com/gnolang/roadmap/issues/4&gt; -->
<g id="node14" class="node">
<title>&lt;https://github.com/gnolang/roadmap/issues/4&gt;</title>
<g id="a_node14"><a xlink:href="<https://github.com/gnolang/roadmap/issues/4>" xlink:title="IBC1 on Gno.land">
<path fill="none" stroke="black" d="M1275,-199C1275,-199 1157,-199 1157,-199 1151,-199 1145,-193 1145,-187 1145,-187 1145,-175 1145,-175 1145,-169 1151,-163 1157,-163 1157,-163 1275,-163 1275,-163 1281,-163 1287,-169 1287,-175 1287,-175 1287,-187 1287,-187 1287,-193 1281,-199 1275,-199"/>
<text text-anchor="middle" x="1216" y="-177.3" font-family="Times,serif" font-size="14.00">IBC1 on Gno.land</text>
</a>
</g>
</g>
<!-- &lt;https://github.com/gnolang/roadmap/issues/1&gt;&#45;&gt;&lt;https://github.com/gnolang/roadmap/issues/4&gt; -->
<g id="edge12" class="edge">
<title>&lt;https://github.com/gnolang/roadmap/issues/1&gt;&#45;&gt;&lt;https://github.com/gnolang/roadmap/issues/4&gt;</title>
<path fill="none" stroke="black" d="M884.58,-160.23C960.49,-165 1063.89,-171.5 1134.69,-175.95"/>
<polygon fill="black" stroke="black" points="1134.69,-179.46 1144.89,-176.59 1135.13,-172.47 1134.69,-179.46"/>
</g>
<!-- &lt;https://github.com/gnolang/roadmap/issues/31&gt; -->
<g id="node5" class="node">
<title>&lt;https://github.com/gnolang/roadmap/issues/31&gt;</title>
<g id="a_node5"><a xlink:href="<https://github.com/gnolang/roadmap/issues/31>" xlink:title="GoR: Governance modules MvP">
<path fill="none" stroke="black" d="M230,-226C230,-226 12,-226 12,-226 6,-226 0,-220 0,-214 0,-214 0,-202 0,-202 0,-196 6,-190 12,-190 12,-190 230,-190 230,-190 236,-190 242,-196 242,-202 242,-202 242,-214 242,-214 242,-220 236,-226 230,-226"/>
<text text-anchor="middle" x="121" y="-204.3" font-family="Times,serif" font-size="14.00">GoR: Governance modules MvP</text>
</a>
</g>
</g>
<!-- &lt;https://github.com/gnolang/roadmap/issues/31&gt;&#45;&gt;&lt;https://github.com/gnolang/roadmap/issues/11&gt; -->
<g id="edge3" class="edge">
<title>&lt;https://github.com/gnolang/roadmap/issues/31&gt;&#45;&gt;&lt;https://github.com/gnolang/roadmap/issues/11&gt;</title>
<path fill="none" stroke="black" d="M242.43,-218.44C267.34,-220.6 293.51,-222.87 318.23,-225.01"/>
<polygon fill="black" stroke="black" points="318.09,-228.51 328.35,-225.89 318.69,-221.54 318.09,-228.51"/>
</g>
<!-- &lt;https://github.com/gnolang/roadmap/issues/6&gt; -->
<g id="node6" class="node">
<title>&lt;https://github.com/gnolang/roadmap/issues/6&gt;</title>
<g id="a_node6"><a xlink:href="<https://github.com/gnolang/roadmap/issues/6>" xlink:title="Solid and straightforward roadmap/vision">
<path fill="none" stroke="black" d="M930,-91C930,-91 639,-91 639,-91 633,-91 627,-85 627,-79 627,-79 627,-67 627,-67 627,-61 633,-55 639,-55 639,-55 930,-55 930,-55 936,-55 942,-61 942,-67 942,-67 942,-79 942,-79 942,-85 936,-91 930,-91"/>
<text text-anchor="middle" x="784.5" y="-69.3" font-family="Times,serif" font-size="14.00">Solid and straightforward roadmap/vision</text>
</a>
</g>
</g>
<!-- &lt;https://github.com/gnolang/roadmap/issues/7&gt; -->
<g id="node7" class="node">
<title>&lt;https://github.com/gnolang/roadmap/issues/7&gt;</title>
<g id="a_node7"><a xlink:href="<https://github.com/gnolang/roadmap/issues/7>" xlink:title="Contributors&#39; DAO leads the project">
<path fill="none" stroke="black" d="M1340.5,-91C1340.5,-91 1091.5,-91 1091.5,-91 1085.5,-91 1079.5,-85 1079.5,-79 1079.5,-79 1079.5,-67 1079.5,-67 1079.5,-61 1085.5,-55 1091.5,-55 1091.5,-55 1340.5,-55 1340.5,-55 1346.5,-55 1352.5,-61 1352.5,-67 1352.5,-67 1352.5,-79 1352.5,-79 1352.5,-85 1346.5,-91 1340.5,-91"/>
<text text-anchor="middle" x="1216" y="-69.3" font-family="Times,serif" font-size="14.00">Contributors&#39; DAO leads the project</text>
</a>
</g>
</g>
<!-- &lt;https://github.com/gnolang/roadmap/issues/6&gt;&#45;&gt;&lt;https://github.com/gnolang/roadmap/issues/7&gt; -->
<g id="edge4" class="edge">
<title>&lt;https://github.com/gnolang/roadmap/issues/6&gt;&#45;&gt;&lt;https://github.com/gnolang/roadmap/issues/7&gt;</title>
<path fill="none" stroke="black" d="M942.08,-73C983.61,-73 1028.27,-73 1069.2,-73"/>
<polygon fill="black" stroke="black" points="1069.25,-76.5 1079.25,-73 1069.25,-69.5 1069.25,-76.5"/>
</g>
<!-- &lt;https://github.com/gnolang/roadmap/issues/8&gt; -->
<g id="node11" class="node">
<title>&lt;https://github.com/gnolang/roadmap/issues/8&gt;</title>
<g id="a_node11"><a xlink:href="<https://github.com/gnolang/roadmap/issues/8>" xlink:title="Gno.land is designed for longevity">
<path fill="none" stroke="black" d="M1739,-118C1739,-118 1502,-118 1502,-118 1496,-118 1490,-112 1490,-106 1490,-106 1490,-94 1490,-94 1490,-88 1496,-82 1502,-82 1502,-82 1739,-82 1739,-82 1745,-82 1751,-88 1751,-94 1751,-94 1751,-106 1751,-106 1751,-112 1745,-118 1739,-118"/>
<text text-anchor="middle" x="1620.5" y="-96.3" font-family="Times,serif" font-size="14.00">Gno.land is designed for longevity</text>
</a>
</g>
</g>
<!-- &lt;https://github.com/gnolang/roadmap/issues/7&gt;&#45;&gt;&lt;https://github.com/gnolang/roadmap/issues/8&gt; -->
<g id="edge15" class="edge">
<title>&lt;https://github.com/gnolang/roadmap/issues/7&gt;&#45;&gt;&lt;https://github.com/gnolang/roadmap/issues/8&gt;</title>
<path fill="none" stroke="black" d="M1352.71,-82.1C1393.61,-84.85 1438.57,-87.86 1479.73,-90.62"/>
<polygon fill="black" stroke="black" points="1479.62,-94.12 1489.83,-91.3 1480.09,-87.14 1479.62,-94.12"/>
</g>
<!-- &lt;https://github.com/gnolang/roadmap/issues/30&gt; -->
<g id="node8" class="node">
<title>&lt;https://github.com/gnolang/roadmap/issues/30&gt;</title>
<g id="a_node8"><a xlink:href="<https://github.com/gnolang/roadmap/issues/30>" xlink:title="GnoVM extensions, IBCx">
<path fill="none" stroke="black" d="M1705.5,-185C1705.5,-185 1535.5,-185 1535.5,-185 1529.5,-185 1523.5,-179 1523.5,-173 1523.5,-173 1523.5,-161 1523.5,-161 1523.5,-155 1529.5,-149 1535.5,-149 1535.5,-149 1705.5,-149 1705.5,-149 1711.5,-149 1717.5,-155 1717.5,-161 1717.5,-161 1717.5,-173 1717.5,-173 1717.5,-179 1711.5,-185 1705.5,-185"/>
<text text-anchor="middle" x="1620.5" y="-163.3" font-family="Times,serif" font-size="14.00">GnoVM extensions, IBCx</text>
</a>
</g>
</g>
<!-- &lt;https://github.com/gnolang/roadmap/issues/10&gt; -->
<g id="node9" class="node">
<title>&lt;https://github.com/gnolang/roadmap/issues/10&gt;</title>
<g id="a_node9"><a xlink:href="<https://github.com/gnolang/roadmap/issues/10>" xlink:title="VM&#45;agnostic Interchain explorations">
<path fill="none" stroke="black" d="M2051,-185C2051,-185 1799,-185 1799,-185 1793,-185 1787,-179 1787,-173 1787,-173 1787,-161 1787,-161 1787,-155 1793,-149 1799,-149 1799,-149 2051,-149 2051,-149 2057,-149 2063,-155 2063,-161 2063,-161 2063,-173 2063,-173 2063,-179 2057,-185 2051,-185"/>
<text text-anchor="middle" x="1925" y="-163.3" font-family="Times,serif" font-size="14.00">VM&#45;agnostic Interchain explorations</text>
</a>
</g>
</g>
<!-- &lt;https://github.com/gnolang/roadmap/issues/30&gt;&#45;&gt;&lt;https://github.com/gnolang/roadmap/issues/10&gt; -->
<g id="edge5" class="edge">
<title>&lt;https://github.com/gnolang/roadmap/issues/30&gt;&#45;&gt;&lt;https://github.com/gnolang/roadmap/issues/10&gt;</title>
<path fill="none" stroke="black" d="M1717.63,-167C1736.5,-167 1756.69,-167 1776.79,-167"/>
<polygon fill="black" stroke="black" points="1776.97,-170.5 1786.97,-167 1776.97,-163.5 1776.97,-170.5"/>
</g>
<!-- &lt;https://github.com/gnolang/roadmap/issues/9&gt;&#45;&gt;&lt;https://github.com/gnolang/roadmap/issues/8&gt; -->
<g id="edge6" class="edge">
<title>&lt;https://github.com/gnolang/roadmap/issues/9&gt;&#45;&gt;&lt;https://github.com/gnolang/roadmap/issues/8&gt;</title>
<path fill="none" stroke="black" d="M1454.05,-111.1C1462.66,-110.52 1471.18,-109.95 1479.55,-109.39"/>
<polygon fill="black" stroke="black" points="1479.93,-112.87 1489.68,-108.71 1479.46,-105.89 1479.93,-112.87"/>
</g>
<!-- &lt;https://github.com/gnolang/roadmap/issues/2&gt; -->
<g id="node12" class="node">
<title>&lt;https://github.com/gnolang/roadmap/issues/2&gt;</title>
<g id="a_node12"><a xlink:href="<https://github.com/gnolang/roadmap/issues/2>" xlink:title="GnoVM MVP is finished">
<path fill="none" stroke="black" d="M515,-145C515,-145 354,-145 354,-145 348,-145 342,-139 342,-133 342,-133 342,-121 342,-121 342,-115 348,-109 354,-109 354,-109 515,-109 515,-109 521,-109 527,-115 527,-121 527,-121 527,-133 527,-133 527,-139 521,-145 515,-145"/>
<text text-anchor="middle" x="434.5" y="-123.3" font-family="Times,serif" font-size="14.00">GnoVM MVP is finished</text>
</a>
</g>
</g>
<!-- &lt;https://github.com/gnolang/roadmap/issues/2&gt;&#45;&gt;&lt;https://github.com/gnolang/roadmap/issues/1&gt; -->
<g id="edge7" class="edge">
<title>&lt;https://github.com/gnolang/roadmap/issues/2&gt;&#45;&gt;&lt;https://github.com/gnolang/roadmap/issues/1&gt;</title>
<path fill="none" stroke="black" d="M527.39,-134.13C572.41,-137.62 626.96,-141.85 674.12,-145.51"/>
<polygon fill="black" stroke="black" points="674.13,-149.03 684.37,-146.31 674.67,-142.05 674.13,-149.03"/>
</g>
<!-- &lt;https://github.com/gnolang/roadmap/issues/33&gt; -->
<g id="node13" class="node">
<title>&lt;https://github.com/gnolang/roadmap/issues/33&gt;</title>
<g id="a_node13"><a xlink:href="<https://github.com/gnolang/roadmap/issues/33>" xlink:title="Strong stdlibs">
<path fill="none" stroke="black" d="M168,-145C168,-145 74,-145 74,-145 68,-145 62,-139 62,-133 62,-133 62,-121 62,-121 62,-115 68,-109 74,-109 74,-109 168,-109 168,-109 174,-109 180,-115 180,-121 180,-121 180,-133 180,-133 180,-139 174,-145 168,-145"/>
<text text-anchor="middle" x="121" y="-123.3" font-family="Times,serif" font-size="14.00">Strong stdlibs</text>
</a>
</g>
</g>
<!-- &lt;https://github.com/gnolang/roadmap/issues/33&gt;&#45;&gt;&lt;https://github.com/gnolang/roadmap/issues/2&gt; -->
<g id="edge8" class="edge">
<title>&lt;https://github.com/gnolang/roadmap/issues/33&gt;&#45;&gt;&lt;https://github.com/gnolang/roadmap/issues/2&gt;</title>
<path fill="none" stroke="black" d="M180.23,-127C222.73,-127 281.45,-127 331.64,-127"/>
<polygon fill="black" stroke="black" points="331.89,-130.5 341.89,-127 331.89,-123.5 331.89,-130.5"/>
</g>
<!-- &lt;https://github.com/gnolang/roadmap/issues/4&gt;&#45;&gt;&lt;https://github.com/gnolang/roadmap/issues/30&gt; -->
<g id="edge9" class="edge">
<title>&lt;https://github.com/gnolang/roadmap/issues/4&gt;&#45;&gt;&lt;https://github.com/gnolang/roadmap/issues/30&gt;</title>
<path fill="none" stroke="black" d="M1287.11,-178.56C1349.47,-176.39 1441.59,-173.19 1513.05,-170.7"/>
<polygon fill="black" stroke="black" points="1513.56,-174.19 1523.43,-170.34 1513.32,-167.19 1513.56,-174.19"/>
</g>
<!-- &lt;https://github.com/gnolang/roadmap/issues/5&gt; -->
<g id="node15" class="node">
<title>&lt;https://github.com/gnolang/roadmap/issues/5&gt;</title>
<g id="a_node15"><a xlink:href="<https://github.com/gnolang/roadmap/issues/5>" xlink:title="ICSv1 on Gno.land">
<path fill="none" stroke="black" d="M1683,-239C1683,-239 1558,-239 1558,-239 1552,-239 1546,-233 1546,-227 1546,-227 1546,-215 1546,-215 1546,-209 1552,-203 1558,-203 1558,-203 1683,-203 1683,-203 1689,-203 1695,-209 1695,-215 1695,-215 1695,-227 1695,-227 1695,-233 1689,-239 1683,-239"/>
<text text-anchor="middle" x="1620.5" y="-217.3" font-family="Times,serif" font-size="14.00">ICSv1 on Gno.land</text>
</a>
</g>
</g>
<!-- &lt;https://github.com/gnolang/roadmap/issues/4&gt;&#45;&gt;&lt;https://github.com/gnolang/roadmap/issues/5&gt; -->
<g id="edge10" class="edge">
<title>&lt;https://github.com/gnolang/roadmap/issues/4&gt;&#45;&gt;&lt;https://github.com/gnolang/roadmap/issues/5&gt;</title>
<path fill="none" stroke="black" d="M1287.11,-187.97C1356.27,-194.84 1462.03,-205.35 1535.61,-212.66"/>
<polygon fill="black" stroke="black" points="1535.47,-216.17 1545.77,-213.67 1536.17,-209.2 1535.47,-216.17"/>
</g>
<!-- &lt;https://github.com/gnolang/roadmap/issues/32&gt; -->
<g id="node16" class="node">
<title>&lt;https://github.com/gnolang/roadmap/issues/32&gt;</title>
<g id="a_node16"><a xlink:href="<https://github.com/gnolang/roadmap/issues/32>" xlink:title="GoR: Robust documentation and tutorials">
<path fill="none" stroke="black" d="M579,-91C579,-91 290,-91 290,-91 284,-91 278,-85 278,-79 278,-79 278,-67 278,-67 278,-61 284,-55 290,-55 290,-55 579,-55 579,-55 585,-55 591,-61 591,-67 591,-67 591,-79 591,-79 591,-85 585,-91 579,-91"/>
<text text-anchor="middle" x="434.5" y="-69.3" font-family="Times,serif" font-size="14.00">GoR: Robust documentation and tutorials</text>
</a>
</g>
</g>
<!-- &lt;https://github.com/gnolang/roadmap/issues/32&gt;&#45;&gt;&lt;https://github.com/gnolang/roadmap/issues/1&gt; -->
<g id="edge14" class="edge">
<title>&lt;https://github.com/gnolang/roadmap/issues/32&gt;&#45;&gt;&lt;https://github.com/gnolang/roadmap/issues/1&gt;</title>
<path fill="none" stroke="black" d="M547.47,-91.04C562.15,-93.81 576.97,-96.82 591,-100 632.46,-109.39 678.32,-122.16 714.87,-132.92"/>
<polygon fill="black" stroke="black" points="714.34,-136.41 724.92,-135.9 716.33,-129.7 714.34,-136.41"/>
</g>
</g>
</svg>
