<?xml version="1.0" encoding="UTF-8" standalone="no"?>
<!DOCTYPE svg PUBLIC "-//W3C//DTD SVG 1.1//EN"
 "http://www.w3.org/Graphics/SVG/1.1/DTD/svg11.dtd">
<!-- Generated by graphviz version 2.43.0 (0)
 -->
<!-- Pages: 1 -->
<svg width="2071pt" height="288pt"
 viewBox="0.00 0.00 2071.00 288.00" xmlns="http://www.w3.org/2000/svg" xmlns:xlink="http://www.w3.org/1999/xlink">
<g id="graph0" class="graph" transform="scale(1 1) rotate(0) translate(4 284)">
<polygon fill="white" stroke="transparent" points="-4,4 -4,-284 2067,-284 2067,4 -4,4"/>
<text text-anchor="middle" x="1031.5" y="-7.8" font-family="Times,serif" font-size="14.00">https://github.com/gnolang/roadmap &#45; generated on 2024/03/28 12:10</text>
<!-- &lt;https://github.com/gnolang/roadmap/issues/11&gt; -->
<g id="node1" class="node">
<title>&lt;https://github.com/gnolang/roadmap/issues/11&gt;</title>
<g id="a_node1"><a xlink:href="<https://github.com/gnolang/roadmap/issues/11>" xlink:title="Proof&#45;of&#45;Contributions MVP">
<path fill="none" stroke="black" d="M528.5,-118C528.5,-118 340.5,-118 340.5,-118 334.5,-118 328.5,-112 328.5,-106 328.5,-106 328.5,-94 328.5,-94 328.5,-88 334.5,-82 340.5,-82 340.5,-82 528.5,-82 528.5,-82 534.5,-82 540.5,-88 540.5,-94 540.5,-94 540.5,-106 540.5,-106 540.5,-112 534.5,-118 528.5,-118"/>
<text text-anchor="middle" x="434.5" y="-96.3" font-family="Times,serif" font-size="14.00">Proof&#45;of&#45;Contributions MVP</text>
</a>
</g>
</g>
<!-- &lt;https://github.com/gnolang/roadmap/issues/1&gt; -->
<g id="node2" class="node">
<title>&lt;https://github.com/gnolang/roadmap/issues/1&gt;</title>
<g id="a_node2"><a xlink:href="<https://github.com/gnolang/roadmap/issues/1>" xlink:title="Launch Gno.land mainnet">
<path fill="none" stroke="black" d="M872.5,-199C872.5,-199 696.5,-199 696.5,-199 690.5,-199 684.5,-193 684.5,-187 684.5,-187 684.5,-175 684.5,-175 684.5,-169 690.5,-163 696.5,-163 696.5,-163 872.5,-163 872.5,-163 878.5,-163 884.5,-169 884.5,-175 884.5,-175 884.5,-187 884.5,-187 884.5,-193 878.5,-199 872.5,-199"/>
<text text-anchor="middle" x="784.5" y="-177.3" font-family="Times,serif" font-size="14.00">Launch Gno.land mainnet</text>
</a>
</g>
</g>
<!-- &lt;https://github.com/gnolang/roadmap/issues/11&gt;&#45;&gt;&lt;https://github.com/gnolang/roadmap/issues/1&gt; -->
<g id="edge1" class="edge">
<title>&lt;https://github.com/gnolang/roadmap/issues/11&gt;&#45;&gt;&lt;https://github.com/gnolang/roadmap/issues/1&gt;</title>
<path fill="none" stroke="black" d="M540.76,-116.78C557.62,-119.9 574.83,-123.34 591,-127 632.46,-136.39 678.32,-149.16 714.87,-159.92"/>
<polygon fill="black" stroke="black" points="714.34,-163.41 724.92,-162.9 716.33,-156.7 714.34,-163.41"/>
</g>
<!-- &lt;https://github.com/gnolang/roadmap/issues/4&gt; -->
<g id="node7" class="node">
<title>&lt;https://github.com/gnolang/roadmap/issues/4&gt;</title>
<g id="a_node7"><a xlink:href="<https://github.com/gnolang/roadmap/issues/4>" xlink:title="IBC1 on Gno.land">
<path fill="none" stroke="black" d="M1275,-172C1275,-172 1157,-172 1157,-172 1151,-172 1145,-166 1145,-160 1145,-160 1145,-148 1145,-148 1145,-142 1151,-136 1157,-136 1157,-136 1275,-136 1275,-136 1281,-136 1287,-142 1287,-148 1287,-148 1287,-160 1287,-160 1287,-166 1281,-172 1275,-172"/>
<text text-anchor="middle" x="1216" y="-150.3" font-family="Times,serif" font-size="14.00">IBC1 on Gno.land</text>
</a>
</g>
</g>
<!-- &lt;https://github.com/gnolang/roadmap/issues/1&gt;&#45;&gt;&lt;https://github.com/gnolang/roadmap/issues/4&gt; -->
<g id="edge12" class="edge">
<title>&lt;https://github.com/gnolang/roadmap/issues/1&gt;&#45;&gt;&lt;https://github.com/gnolang/roadmap/issues/4&gt;</title>
<path fill="none" stroke="black" d="M884.58,-174.77C960.49,-170 1063.89,-163.5 1134.69,-159.05"/>
<polygon fill="black" stroke="black" points="1135.13,-162.53 1144.89,-158.41 1134.69,-155.54 1135.13,-162.53"/>
</g>
<!-- &lt;https://github.com/gnolang/roadmap/issues/9&gt; -->
<g id="node15" class="node">
<title>&lt;https://github.com/gnolang/roadmap/issues/9&gt;</title>
<g id="a_node15"><a xlink:href="<https://github.com/gnolang/roadmap/issues/9>" xlink:title="Tendermint2 is stable, versatile and fully independent from Gno">
<path fill="none" stroke="black" d="M1442,-226C1442,-226 990,-226 990,-226 984,-226 978,-220 978,-214 978,-214 978,-202 978,-202 978,-196 984,-190 990,-190 990,-190 1442,-190 1442,-190 1448,-190 1454,-196 1454,-202 1454,-202 1454,-214 1454,-214 1454,-220 1448,-226 1442,-226"/>
<text text-anchor="middle" x="1216" y="-204.3" font-family="Times,serif" font-size="14.00">Tendermint2 is stable, versatile and fully independent from Gno</text>
</a>
</g>
</g>
<!-- &lt;https://github.com/gnolang/roadmap/issues/1&gt;&#45;&gt;&lt;https://github.com/gnolang/roadmap/issues/9&gt; -->
<g id="edge13" class="edge">
<title>&lt;https://github.com/gnolang/roadmap/issues/1&gt;&#45;&gt;&lt;https://github.com/gnolang/roadmap/issues/9&gt;</title>
<path fill="none" stroke="black" d="M884.58,-187.23C909.84,-188.82 938.15,-190.6 967.28,-192.43"/>
<polygon fill="black" stroke="black" points="967.42,-195.94 977.62,-193.08 967.86,-188.96 967.42,-195.94"/>
</g>
<!-- &lt;https://github.com/gnolang/roadmap/issues/12&gt; -->
<g id="node3" class="node">
<title>&lt;https://github.com/gnolang/roadmap/issues/12&gt;</title>
<g id="a_node3"><a xlink:href="<https://github.com/gnolang/roadmap/issues/12>" xlink:title="GoR: Evaluation DAO MVP">
<path fill="none" stroke="black" d="M212.5,-145C212.5,-145 29.5,-145 29.5,-145 23.5,-145 17.5,-139 17.5,-133 17.5,-133 17.5,-121 17.5,-121 17.5,-115 23.5,-109 29.5,-109 29.5,-109 212.5,-109 212.5,-109 218.5,-109 224.5,-115 224.5,-121 224.5,-121 224.5,-133 224.5,-133 224.5,-139 218.5,-145 212.5,-145"/>
<text text-anchor="middle" x="121" y="-123.3" font-family="Times,serif" font-size="14.00">GoR: Evaluation DAO MVP</text>
</a>
</g>
</g>
<!-- &lt;https://github.com/gnolang/roadmap/issues/12&gt;&#45;&gt;&lt;https://github.com/gnolang/roadmap/issues/11&gt; -->
<g id="edge2" class="edge">
<title>&lt;https://github.com/gnolang/roadmap/issues/12&gt;&#45;&gt;&lt;https://github.com/gnolang/roadmap/issues/11&gt;</title>
<path fill="none" stroke="black" d="M224.86,-118.08C254.71,-115.5 287.51,-112.65 318.08,-110"/>
<polygon fill="black" stroke="black" points="318.69,-113.46 328.35,-109.11 318.09,-106.49 318.69,-113.46"/>
</g>
<!-- &lt;https://github.com/gnolang/roadmap/issues/30&gt; -->
<g id="node4" class="node">
<title>&lt;https://github.com/gnolang/roadmap/issues/30&gt;</title>
<g id="a_node4"><a xlink:href="<https://github.com/gnolang/roadmap/issues/30>" xlink:title="GnoVM extensions, IBCx">
<path fill="none" stroke="black" d="M1705.5,-186C1705.5,-186 1535.5,-186 1535.5,-186 1529.5,-186 1523.5,-180 1523.5,-174 1523.5,-174 1523.5,-162 1523.5,-162 1523.5,-156 1529.5,-150 1535.5,-150 1535.5,-150 1705.5,-150 1705.5,-150 1711.5,-150 1717.5,-156 1717.5,-162 1717.5,-162 1717.5,-174 1717.5,-174 1717.5,-180 1711.5,-186 1705.5,-186"/>
<text text-anchor="middle" x="1620.5" y="-164.3" font-family="Times,serif" font-size="14.00">GnoVM extensions, IBCx</text>
</a>
</g>
</g>
<!-- &lt;https://github.com/gnolang/roadmap/issues/10&gt; -->
<g id="node5" class="node">
<title>&lt;https://github.com/gnolang/roadmap/issues/10&gt;</title>
<g id="a_node5"><a xlink:href="<https://github.com/gnolang/roadmap/issues/10>" xlink:title="VM&#45;agnostic Interchain explorations">
<path fill="none" stroke="black" d="M2051,-186C2051,-186 1799,-186 1799,-186 1793,-186 1787,-180 1787,-174 1787,-174 1787,-162 1787,-162 1787,-156 1793,-150 1799,-150 1799,-150 2051,-150 2051,-150 2057,-150 2063,-156 2063,-162 2063,-162 2063,-174 2063,-174 2063,-180 2057,-186 2051,-186"/>
<text text-anchor="middle" x="1925" y="-164.3" font-family="Times,serif" font-size="14.00">VM&#45;agnostic Interchain explorations</text>
</a>
</g>
</g>
<!-- &lt;https://github.com/gnolang/roadmap/issues/30&gt;&#45;&gt;&lt;https://github.com/gnolang/roadmap/issues/10&gt; -->
<g id="edge3" class="edge">
<title>&lt;https://github.com/gnolang/roadmap/issues/30&gt;&#45;&gt;&lt;https://github.com/gnolang/roadmap/issues/10&gt;</title>
<path fill="none" stroke="black" d="M1717.63,-168C1736.5,-168 1756.69,-168 1776.79,-168"/>
<polygon fill="black" stroke="black" points="1776.97,-171.5 1786.97,-168 1776.97,-164.5 1776.97,-171.5"/>
</g>
<!-- &lt;https://github.com/gnolang/roadmap/issues/32&gt; -->
<g id="node6" class="node">
<title>&lt;https://github.com/gnolang/roadmap/issues/32&gt;</title>
<g id="a_node6"><a xlink:href="<https://github.com/gnolang/roadmap/issues/32>" xlink:title="GoR: Robust documentation and tutorials">
<path fill="none" stroke="black" d="M579,-280C579,-280 290,-280 290,-280 284,-280 278,-274 278,-268 278,-268 278,-256 278,-256 278,-250 284,-244 290,-244 290,-244 579,-244 579,-244 585,-244 591,-250 591,-256 591,-256 591,-268 591,-268 591,-274 585,-280 579,-280"/>
<text text-anchor="middle" x="434.5" y="-258.3" font-family="Times,serif" font-size="14.00">GoR: Robust documentation and tutorials</text>
</a>
</g>
</g>
<!-- &lt;https://github.com/gnolang/roadmap/issues/32&gt;&#45;&gt;&lt;https://github.com/gnolang/roadmap/issues/1&gt; -->
<g id="edge4" class="edge">
<title>&lt;https://github.com/gnolang/roadmap/issues/32&gt;&#45;&gt;&lt;https://github.com/gnolang/roadmap/issues/1&gt;</title>
<path fill="none" stroke="black" d="M547.47,-243.96C562.15,-241.19 576.97,-238.18 591,-235 632.46,-225.61 678.32,-212.84 714.87,-202.08"/>
<polygon fill="black" stroke="black" points="716.33,-205.3 724.92,-199.1 714.34,-198.59 716.33,-205.3"/>
</g>
<!-- &lt;https://github.com/gnolang/roadmap/issues/4&gt;&#45;&gt;&lt;https://github.com/gnolang/roadmap/issues/30&gt; -->
<g id="edge5" class="edge">
<title>&lt;https://github.com/gnolang/roadmap/issues/4&gt;&#45;&gt;&lt;https://github.com/gnolang/roadmap/issues/30&gt;</title>
<path fill="none" stroke="black" d="M1287.11,-156.44C1349.47,-158.61 1441.59,-161.81 1513.05,-164.3"/>
<polygon fill="black" stroke="black" points="1513.32,-167.81 1523.43,-164.66 1513.56,-160.81 1513.32,-167.81"/>
</g>
<!-- &lt;https://github.com/gnolang/roadmap/issues/5&gt; -->
<g id="node8" class="node">
<title>&lt;https://github.com/gnolang/roadmap/issues/5&gt;</title>
<g id="a_node8"><a xlink:href="<https://github.com/gnolang/roadmap/issues/5>" xlink:title="ICSv1 on Gno.land">
<path fill="none" stroke="black" d="M1683,-132C1683,-132 1558,-132 1558,-132 1552,-132 1546,-126 1546,-120 1546,-120 1546,-108 1546,-108 1546,-102 1552,-96 1558,-96 1558,-96 1683,-96 1683,-96 1689,-96 1695,-102 1695,-108 1695,-108 1695,-120 1695,-120 1695,-126 1689,-132 1683,-132"/>
<text text-anchor="middle" x="1620.5" y="-110.3" font-family="Times,serif" font-size="14.00">ICSv1 on Gno.land</text>
</a>
</g>
</g>
<!-- &lt;https://github.com/gnolang/roadmap/issues/4&gt;&#45;&gt;&lt;https://github.com/gnolang/roadmap/issues/5&gt; -->
<g id="edge6" class="edge">
<title>&lt;https://github.com/gnolang/roadmap/issues/4&gt;&#45;&gt;&lt;https://github.com/gnolang/roadmap/issues/5&gt;</title>
<path fill="none" stroke="black" d="M1287.11,-147.03C1356.27,-140.16 1462.03,-129.65 1535.61,-122.34"/>
<polygon fill="black" stroke="black" points="1536.17,-125.8 1545.77,-121.33 1535.47,-118.83 1536.17,-125.8"/>
</g>
<!-- &lt;https://github.com/gnolang/roadmap/issues/31&gt; -->
<g id="node9" class="node">
<title>&lt;https://github.com/gnolang/roadmap/issues/31&gt;</title>
<g id="a_node9"><a xlink:href="<https://github.com/gnolang/roadmap/issues/31>" xlink:title="GoR: Governance modules MvP">
<path fill="none" stroke="black" d="M230,-91C230,-91 12,-91 12,-91 6,-91 0,-85 0,-79 0,-79 0,-67 0,-67 0,-61 6,-55 12,-55 12,-55 230,-55 230,-55 236,-55 242,-61 242,-67 242,-67 242,-79 242,-79 242,-85 236,-91 230,-91"/>
<text text-anchor="middle" x="121" y="-69.3" font-family="Times,serif" font-size="14.00">GoR: Governance modules MvP</text>
</a>
</g>
</g>
<!-- &lt;https://github.com/gnolang/roadmap/issues/31&gt;&#45;&gt;&lt;https://github.com/gnolang/roadmap/issues/11&gt; -->
<g id="edge7" class="edge">
<title>&lt;https://github.com/gnolang/roadmap/issues/31&gt;&#45;&gt;&lt;https://github.com/gnolang/roadmap/issues/11&gt;</title>
<path fill="none" stroke="black" d="M242.43,-83.44C267.34,-85.6 293.51,-87.87 318.23,-90.01"/>
<polygon fill="black" stroke="black" points="318.09,-93.51 328.35,-90.89 318.69,-86.54 318.09,-93.51"/>
</g>
<!-- &lt;https://github.com/gnolang/roadmap/issues/33&gt; -->
<g id="node10" class="node">
<title>&lt;https://github.com/gnolang/roadmap/issues/33&gt;</title>
<g id="a_node10"><a xlink:href="<https://github.com/gnolang/roadmap/issues/33>" xlink:title="Strong stdlibs">
<path fill="none" stroke="black" d="M168,-226C168,-226 74,-226 74,-226 68,-226 62,-220 62,-214 62,-214 62,-202 62,-202 62,-196 68,-190 74,-190 74,-190 168,-190 168,-190 174,-190 180,-196 180,-202 180,-202 180,-214 180,-214 180,-220 174,-226 168,-226"/>
<text text-anchor="middle" x="121" y="-204.3" font-family="Times,serif" font-size="14.00">Strong stdlibs</text>
</a>
</g>
</g>
<!-- &lt;https://github.com/gnolang/roadmap/issues/2&gt; -->
<g id="node11" class="node">
<title>&lt;https://github.com/gnolang/roadmap/issues/2&gt;</title>
<g id="a_node11"><a xlink:href="<https://github.com/gnolang/roadmap/issues/2>" xlink:title="GnoVM MVP is finished">
<path fill="none" stroke="black" d="M515,-226C515,-226 354,-226 354,-226 348,-226 342,-220 342,-214 342,-214 342,-202 342,-202 342,-196 348,-190 354,-190 354,-190 515,-190 515,-190 521,-190 527,-196 527,-202 527,-202 527,-214 527,-214 527,-220 521,-226 515,-226"/>
<text text-anchor="middle" x="434.5" y="-204.3" font-family="Times,serif" font-size="14.00">GnoVM MVP is finished</text>
</a>
</g>
</g>
<!-- &lt;https://github.com/gnolang/roadmap/issues/33&gt;&#45;&gt;&lt;https://github.com/gnolang/roadmap/issues/2&gt; -->
<g id="edge8" class="edge">
<title>&lt;https://github.com/gnolang/roadmap/issues/33&gt;&#45;&gt;&lt;https://github.com/gnolang/roadmap/issues/2&gt;</title>
<path fill="none" stroke="black" d="M180.23,-208C222.73,-208 281.45,-208 331.64,-208"/>
<polygon fill="black" stroke="black" points="331.89,-211.5 341.89,-208 331.89,-204.5 331.89,-211.5"/>
</g>
<!-- &lt;https://github.com/gnolang/roadmap/issues/2&gt;&#45;&gt;&lt;https://github.com/gnolang/roadmap/issues/1&gt; -->
<g id="edge14" class="edge">
<title>&lt;https://github.com/gnolang/roadmap/issues/2&gt;&#45;&gt;&lt;https://github.com/gnolang/roadmap/issues/1&gt;</title>
<path fill="none" stroke="black" d="M527.39,-200.87C572.41,-197.38 626.96,-193.15 674.12,-189.49"/>
<polygon fill="black" stroke="black" points="674.67,-192.95 684.37,-188.69 674.13,-185.97 674.67,-192.95"/>
</g>
<!-- &lt;https://github.com/gnolang/roadmap/issues/6&gt; -->
<g id="node12" class="node">
<title>&lt;https://github.com/gnolang/roadmap/issues/6&gt;</title>
<g id="a_node12"><a xlink:href="<https://github.com/gnolang/roadmap/issues/6>" xlink:title="Solid and straightforward roadmap/vision">
<path fill="none" stroke="black" d="M930,-280C930,-280 639,-280 639,-280 633,-280 627,-274 627,-268 627,-268 627,-256 627,-256 627,-250 633,-244 639,-244 639,-244 930,-244 930,-244 936,-244 942,-250 942,-256 942,-256 942,-268 942,-268 942,-274 936,-280 930,-280"/>
<text text-anchor="middle" x="784.5" y="-258.3" font-family="Times,serif" font-size="14.00">Solid and straightforward roadmap/vision</text>
</a>
</g>
</g>
<!-- &lt;https://github.com/gnolang/roadmap/issues/7&gt; -->
<g id="node13" class="node">
<title>&lt;https://github.com/gnolang/roadmap/issues/7&gt;</title>
<g id="a_node13"><a xlink:href="<https://github.com/gnolang/roadmap/issues/7>" xlink:title="Contributors&#39; DAO leads the project">
<path fill="none" stroke="black" d="M1340.5,-280C1340.5,-280 1091.5,-280 1091.5,-280 1085.5,-280 1079.5,-274 1079.5,-268 1079.5,-268 1079.5,-256 1079.5,-256 1079.5,-250 1085.5,-244 1091.5,-244 1091.5,-244 1340.5,-244 1340.5,-244 1346.5,-244 1352.5,-250 1352.5,-256 1352.5,-256 1352.5,-268 1352.5,-268 1352.5,-274 1346.5,-280 1340.5,-280"/>
<text text-anchor="middle" x="1216" y="-258.3" font-family="Times,serif" font-size="14.00">Contributors&#39; DAO leads the project</text>
</a>
</g>
</g>
<!-- &lt;https://github.com/gnolang/roadmap/issues/6&gt;&#45;&gt;&lt;https://github.com/gnolang/roadmap/issues/7&gt; -->
<g id="edge9" class="edge">
<title>&lt;https://github.com/gnolang/roadmap/issues/6&gt;&#45;&gt;&lt;https://github.com/gnolang/roadmap/issues/7&gt;</title>
<path fill="none" stroke="black" d="M942.08,-262C983.61,-262 1028.27,-262 1069.2,-262"/>
<polygon fill="black" stroke="black" points="1069.25,-265.5 1079.25,-262 1069.25,-258.5 1069.25,-265.5"/>
</g>
<!-- &lt;https://github.com/gnolang/roadmap/issues/8&gt; -->
<g id="node14" class="node">
<title>&lt;https://github.com/gnolang/roadmap/issues/8&gt;</title>
<g id="a_node14"><a xlink:href="<https://github.com/gnolang/roadmap/issues/8>" xlink:title="Gno.land is designed for longevity">
<path fill="none" stroke="black" d="M1739,-267C1739,-267 1502,-267 1502,-267 1496,-267 1490,-261 1490,-255 1490,-255 1490,-243 1490,-243 1490,-237 1496,-231 1502,-231 1502,-231 1739,-231 1739,-231 1745,-231 1751,-237 1751,-243 1751,-243 1751,-255 1751,-255 1751,-261 1745,-267 1739,-267"/>
<text text-anchor="middle" x="1620.5" y="-245.3" font-family="Times,serif" font-size="14.00">Gno.land is designed for longevity</text>
</a>
</g>
</g>
<!-- &lt;https://github.com/gnolang/roadmap/issues/7&gt;&#45;&gt;&lt;https://github.com/gnolang/roadmap/issues/8&gt; -->
<g id="edge10" class="edge">
<title>&lt;https://github.com/gnolang/roadmap/issues/7&gt;&#45;&gt;&lt;https://github.com/gnolang/roadmap/issues/8&gt;</title>
<path fill="none" stroke="black" d="M1352.71,-257.62C1393.61,-256.3 1438.57,-254.84 1479.73,-253.51"/>
<polygon fill="black" stroke="black" points="1479.95,-257.01 1489.83,-253.19 1479.72,-250.01 1479.95,-257.01"/>
</g>
<!-- &lt;https://github.com/gnolang/roadmap/issues/9&gt;&#45;&gt;&lt;https://github.com/gnolang/roadmap/issues/8&gt; -->
<g id="edge11" class="edge">
<title>&lt;https://github.com/gnolang/roadmap/issues/9&gt;&#45;&gt;&lt;https://github.com/gnolang/roadmap/issues/8&gt;</title>
<path fill="none" stroke="black" d="M1393.84,-226.01C1422.6,-228.94 1452.03,-231.94 1479.75,-234.76"/>
<polygon fill="black" stroke="black" points="1479.57,-238.26 1489.88,-235.8 1480.28,-231.3 1479.57,-238.26"/>
</g>
<!-- &lt;https://github.com/gnolang/roadmap/issues/3&gt; -->
<g id="node16" class="node">
<title>&lt;https://github.com/gnolang/roadmap/issues/3&gt;</title>
<g id="a_node16"><a xlink:href="<https://github.com/gnolang/roadmap/issues/3>" xlink:title="Tendermint2 MVP is finished">
<path fill="none" stroke="black" d="M534.5,-172C534.5,-172 334.5,-172 334.5,-172 328.5,-172 322.5,-166 322.5,-160 322.5,-160 322.5,-148 322.5,-148 322.5,-142 328.5,-136 334.5,-136 334.5,-136 534.5,-136 534.5,-136 540.5,-136 546.5,-142 546.5,-148 546.5,-148 546.5,-160 546.5,-160 546.5,-166 540.5,-172 534.5,-172"/>
<text text-anchor="middle" x="434.5" y="-150.3" font-family="Times,serif" font-size="14.00">Tendermint2 MVP is finished</text>
</a>
</g>
</g>
<!-- &lt;https://github.com/gnolang/roadmap/issues/3&gt;&#45;&gt;&lt;https://github.com/gnolang/roadmap/issues/1&gt; -->
<g id="edge15" class="edge">
<title>&lt;https://github.com/gnolang/roadmap/issues/3&gt;&#45;&gt;&lt;https://github.com/gnolang/roadmap/issues/1&gt;</title>
<path fill="none" stroke="black" d="M546.57,-162.62C587.37,-165.78 633.5,-169.36 674.15,-172.52"/>
<polygon fill="black" stroke="black" points="674.12,-176.02 684.36,-173.31 674.66,-169.05 674.12,-176.02"/>
</g>
</g>
</svg>
