<?xml version="1.0" encoding="UTF-8" standalone="no"?>
<!DOCTYPE svg PUBLIC "-//W3C//DTD SVG 1.1//EN"
 "http://www.w3.org/Graphics/SVG/1.1/DTD/svg11.dtd">
<!-- Generated by graphviz version 2.43.0 (0)
 -->
<!-- Pages: 1 -->
<svg width="2071pt" height="261pt"
 viewBox="0.00 0.00 2071.00 261.00" xmlns="http://www.w3.org/2000/svg" xmlns:xlink="http://www.w3.org/1999/xlink">
<g id="graph0" class="graph" transform="scale(1 1) rotate(0) translate(4 257)">
<polygon fill="white" stroke="transparent" points="-4,4 -4,-257 2067,-257 2067,4 -4,4"/>
<text text-anchor="middle" x="1031.5" y="-7.8" font-family="Times,serif" font-size="14.00">https://github.com/gnolang/roadmap &#45; generated on 2024/11/12 12:09</text>
<!-- &lt;https://github.com/gnolang/roadmap/issues/10&gt; -->
<g id="node1" class="node">
<title>&lt;https://github.com/gnolang/roadmap/issues/10&gt;</title>
<g id="a_node1"><a xlink:href="<https://github.com/gnolang/roadmap/issues/10>" xlink:title="VM&#45;agnostic Interchain explorations">
<path fill="none" stroke="black" d="M2051,-159C2051,-159 1799,-159 1799,-159 1793,-159 1787,-153 1787,-147 1787,-147 1787,-135 1787,-135 1787,-129 1793,-123 1799,-123 1799,-123 2051,-123 2051,-123 2057,-123 2063,-129 2063,-135 2063,-135 2063,-147 2063,-147 2063,-153 2057,-159 2051,-159"/>
<text text-anchor="middle" x="1925" y="-137.3" font-family="Times,serif" font-size="14.00">VM&#45;agnostic Interchain explorations</text>
</a>
</g>
</g>
<!-- &lt;https://github.com/gnolang/roadmap/issues/3&gt; -->
<g id="node2" class="node">
<title>&lt;https://github.com/gnolang/roadmap/issues/3&gt;</title>
<g id="a_node2"><a xlink:href="<https://github.com/gnolang/roadmap/issues/3>" xlink:title="Tendermint2 MVP is finished">
<path fill="none" stroke="black" d="M534.5,-253C534.5,-253 334.5,-253 334.5,-253 328.5,-253 322.5,-247 322.5,-241 322.5,-241 322.5,-229 322.5,-229 322.5,-223 328.5,-217 334.5,-217 334.5,-217 534.5,-217 534.5,-217 540.5,-217 546.5,-223 546.5,-229 546.5,-229 546.5,-241 546.5,-241 546.5,-247 540.5,-253 534.5,-253"/>
<text text-anchor="middle" x="434.5" y="-231.3" font-family="Times,serif" font-size="14.00">Tendermint2 MVP is finished</text>
</a>
</g>
</g>
<!-- &lt;https://github.com/gnolang/roadmap/issues/1&gt; -->
<g id="node3" class="node">
<title>&lt;https://github.com/gnolang/roadmap/issues/1&gt;</title>
<g id="a_node3"><a xlink:href="<https://github.com/gnolang/roadmap/issues/1>" xlink:title="Launch Gno.land mainnet">
<path fill="none" stroke="black" d="M872.5,-172C872.5,-172 696.5,-172 696.5,-172 690.5,-172 684.5,-166 684.5,-160 684.5,-160 684.5,-148 684.5,-148 684.5,-142 690.5,-136 696.5,-136 696.5,-136 872.5,-136 872.5,-136 878.5,-136 884.5,-142 884.5,-148 884.5,-148 884.5,-160 884.5,-160 884.5,-166 878.5,-172 872.5,-172"/>
<text text-anchor="middle" x="784.5" y="-150.3" font-family="Times,serif" font-size="14.00">Launch Gno.land mainnet</text>
</a>
</g>
</g>
<!-- &lt;https://github.com/gnolang/roadmap/issues/3&gt;&#45;&gt;&lt;https://github.com/gnolang/roadmap/issues/1&gt; -->
<g id="edge1" class="edge">
<title>&lt;https://github.com/gnolang/roadmap/issues/3&gt;&#45;&gt;&lt;https://github.com/gnolang/roadmap/issues/1&gt;</title>
<path fill="none" stroke="black" d="M546.63,-217.12C561.59,-214.3 576.7,-211.24 591,-208 632.46,-198.61 678.32,-185.84 714.87,-175.08"/>
<polygon fill="black" stroke="black" points="716.33,-178.3 724.92,-172.1 714.34,-171.59 716.33,-178.3"/>
</g>
<!-- &lt;https://github.com/gnolang/roadmap/issues/4&gt; -->
<g id="node6" class="node">
<title>&lt;https://github.com/gnolang/roadmap/issues/4&gt;</title>
<g id="a_node6"><a xlink:href="<https://github.com/gnolang/roadmap/issues/4>" xlink:title="IBC1 on Gno.land">
<path fill="none" stroke="black" d="M1275,-145C1275,-145 1157,-145 1157,-145 1151,-145 1145,-139 1145,-133 1145,-133 1145,-121 1145,-121 1145,-115 1151,-109 1157,-109 1157,-109 1275,-109 1275,-109 1281,-109 1287,-115 1287,-121 1287,-121 1287,-133 1287,-133 1287,-139 1281,-145 1275,-145"/>
<text text-anchor="middle" x="1216" y="-123.3" font-family="Times,serif" font-size="14.00">IBC1 on Gno.land</text>
</a>
</g>
</g>
<!-- &lt;https://github.com/gnolang/roadmap/issues/1&gt;&#45;&gt;&lt;https://github.com/gnolang/roadmap/issues/4&gt; -->
<g id="edge3" class="edge">
<title>&lt;https://github.com/gnolang/roadmap/issues/1&gt;&#45;&gt;&lt;https://github.com/gnolang/roadmap/issues/4&gt;</title>
<path fill="none" stroke="black" d="M884.58,-147.77C960.49,-143 1063.89,-136.5 1134.69,-132.05"/>
<polygon fill="black" stroke="black" points="1135.13,-135.53 1144.89,-131.41 1134.69,-128.54 1135.13,-135.53"/>
</g>
<!-- &lt;https://github.com/gnolang/roadmap/issues/9&gt; -->
<g id="node7" class="node">
<title>&lt;https://github.com/gnolang/roadmap/issues/9&gt;</title>
<g id="a_node7"><a xlink:href="<https://github.com/gnolang/roadmap/issues/9>" xlink:title="Tendermint2 is stable, versatile and fully independent from Gno">
<path fill="none" stroke="black" d="M1442,-199C1442,-199 990,-199 990,-199 984,-199 978,-193 978,-187 978,-187 978,-175 978,-175 978,-169 984,-163 990,-163 990,-163 1442,-163 1442,-163 1448,-163 1454,-169 1454,-175 1454,-175 1454,-187 1454,-187 1454,-193 1448,-199 1442,-199"/>
<text text-anchor="middle" x="1216" y="-177.3" font-family="Times,serif" font-size="14.00">Tendermint2 is stable, versatile and fully independent from Gno</text>
</a>
</g>
</g>
<!-- &lt;https://github.com/gnolang/roadmap/issues/1&gt;&#45;&gt;&lt;https://github.com/gnolang/roadmap/issues/9&gt; -->
<g id="edge4" class="edge">
<title>&lt;https://github.com/gnolang/roadmap/issues/1&gt;&#45;&gt;&lt;https://github.com/gnolang/roadmap/issues/9&gt;</title>
<path fill="none" stroke="black" d="M884.58,-160.23C909.84,-161.82 938.15,-163.6 967.28,-165.43"/>
<polygon fill="black" stroke="black" points="967.42,-168.94 977.62,-166.08 967.86,-161.96 967.42,-168.94"/>
</g>
<!-- &lt;https://github.com/gnolang/roadmap/issues/6&gt; -->
<g id="node4" class="node">
<title>&lt;https://github.com/gnolang/roadmap/issues/6&gt;</title>
<g id="a_node4"><a xlink:href="<https://github.com/gnolang/roadmap/issues/6>" xlink:title="Solid and straightforward roadmap/vision">
<path fill="none" stroke="black" d="M930,-253C930,-253 639,-253 639,-253 633,-253 627,-247 627,-241 627,-241 627,-229 627,-229 627,-223 633,-217 639,-217 639,-217 930,-217 930,-217 936,-217 942,-223 942,-229 942,-229 942,-241 942,-241 942,-247 936,-253 930,-253"/>
<text text-anchor="middle" x="784.5" y="-231.3" font-family="Times,serif" font-size="14.00">Solid and straightforward roadmap/vision</text>
</a>
</g>
</g>
<!-- &lt;https://github.com/gnolang/roadmap/issues/7&gt; -->
<g id="node5" class="node">
<title>&lt;https://github.com/gnolang/roadmap/issues/7&gt;</title>
<g id="a_node5"><a xlink:href="<https://github.com/gnolang/roadmap/issues/7>" xlink:title="Contributors&#39; DAO leads the project">
<path fill="none" stroke="black" d="M1340.5,-253C1340.5,-253 1091.5,-253 1091.5,-253 1085.5,-253 1079.5,-247 1079.5,-241 1079.5,-241 1079.5,-229 1079.5,-229 1079.5,-223 1085.5,-217 1091.5,-217 1091.5,-217 1340.5,-217 1340.5,-217 1346.5,-217 1352.5,-223 1352.5,-229 1352.5,-229 1352.5,-241 1352.5,-241 1352.5,-247 1346.5,-253 1340.5,-253"/>
<text text-anchor="middle" x="1216" y="-231.3" font-family="Times,serif" font-size="14.00">Contributors&#39; DAO leads the project</text>
</a>
</g>
</g>
<!-- &lt;https://github.com/gnolang/roadmap/issues/6&gt;&#45;&gt;&lt;https://github.com/gnolang/roadmap/issues/7&gt; -->
<g id="edge2" class="edge">
<title>&lt;https://github.com/gnolang/roadmap/issues/6&gt;&#45;&gt;&lt;https://github.com/gnolang/roadmap/issues/7&gt;</title>
<path fill="none" stroke="black" d="M942.08,-235C983.61,-235 1028.27,-235 1069.2,-235"/>
<polygon fill="black" stroke="black" points="1069.25,-238.5 1079.25,-235 1069.25,-231.5 1069.25,-238.5"/>
</g>
<!-- &lt;https://github.com/gnolang/roadmap/issues/8&gt; -->
<g id="node9" class="node">
<title>&lt;https://github.com/gnolang/roadmap/issues/8&gt;</title>
<g id="a_node9"><a xlink:href="<https://github.com/gnolang/roadmap/issues/8>" xlink:title="Gno.land is designed for longevity">
<path fill="none" stroke="black" d="M1739,-240C1739,-240 1502,-240 1502,-240 1496,-240 1490,-234 1490,-228 1490,-228 1490,-216 1490,-216 1490,-210 1496,-204 1502,-204 1502,-204 1739,-204 1739,-204 1745,-204 1751,-210 1751,-216 1751,-216 1751,-228 1751,-228 1751,-234 1745,-240 1739,-240"/>
<text text-anchor="middle" x="1620.5" y="-218.3" font-family="Times,serif" font-size="14.00">Gno.land is designed for longevity</text>
</a>
</g>
</g>
<!-- &lt;https://github.com/gnolang/roadmap/issues/7&gt;&#45;&gt;&lt;https://github.com/gnolang/roadmap/issues/8&gt; -->
<g id="edge6" class="edge">
<title>&lt;https://github.com/gnolang/roadmap/issues/7&gt;&#45;&gt;&lt;https://github.com/gnolang/roadmap/issues/8&gt;</title>
<path fill="none" stroke="black" d="M1352.71,-230.62C1393.61,-229.3 1438.57,-227.84 1479.73,-226.51"/>
<polygon fill="black" stroke="black" points="1479.95,-230.01 1489.83,-226.19 1479.72,-223.01 1479.95,-230.01"/>
</g>
<!-- &lt;https://github.com/gnolang/roadmap/issues/30&gt; -->
<g id="node8" class="node">
<title>&lt;https://github.com/gnolang/roadmap/issues/30&gt;</title>
<g id="a_node8"><a xlink:href="<https://github.com/gnolang/roadmap/issues/30>" xlink:title="GnoVM extensions, IBCx">
<path fill="none" stroke="black" d="M1705.5,-159C1705.5,-159 1535.5,-159 1535.5,-159 1529.5,-159 1523.5,-153 1523.5,-147 1523.5,-147 1523.5,-135 1523.5,-135 1523.5,-129 1529.5,-123 1535.5,-123 1535.5,-123 1705.5,-123 1705.5,-123 1711.5,-123 1717.5,-129 1717.5,-135 1717.5,-135 1717.5,-147 1717.5,-147 1717.5,-153 1711.5,-159 1705.5,-159"/>
<text text-anchor="middle" x="1620.5" y="-137.3" font-family="Times,serif" font-size="14.00">GnoVM extensions, IBCx</text>
</a>
</g>
</g>
<!-- &lt;https://github.com/gnolang/roadmap/issues/4&gt;&#45;&gt;&lt;https://github.com/gnolang/roadmap/issues/30&gt; -->
<g id="edge12" class="edge">
<title>&lt;https://github.com/gnolang/roadmap/issues/4&gt;&#45;&gt;&lt;https://github.com/gnolang/roadmap/issues/30&gt;</title>
<path fill="none" stroke="black" d="M1287.11,-129.44C1349.47,-131.61 1441.59,-134.81 1513.05,-137.3"/>
<polygon fill="black" stroke="black" points="1513.32,-140.81 1523.43,-137.66 1513.56,-133.81 1513.32,-140.81"/>
</g>
<!-- &lt;https://github.com/gnolang/roadmap/issues/5&gt; -->
<g id="node15" class="node">
<title>&lt;https://github.com/gnolang/roadmap/issues/5&gt;</title>
<g id="a_node15"><a xlink:href="<https://github.com/gnolang/roadmap/issues/5>" xlink:title="ICSv1 on Gno.land">
<path fill="none" stroke="black" d="M1683,-105C1683,-105 1558,-105 1558,-105 1552,-105 1546,-99 1546,-93 1546,-93 1546,-81 1546,-81 1546,-75 1552,-69 1558,-69 1558,-69 1683,-69 1683,-69 1689,-69 1695,-75 1695,-81 1695,-81 1695,-93 1695,-93 1695,-99 1689,-105 1683,-105"/>
<text text-anchor="middle" x="1620.5" y="-83.3" font-family="Times,serif" font-size="14.00">ICSv1 on Gno.land</text>
</a>
</g>
</g>
<!-- &lt;https://github.com/gnolang/roadmap/issues/4&gt;&#45;&gt;&lt;https://github.com/gnolang/roadmap/issues/5&gt; -->
<g id="edge13" class="edge">
<title>&lt;https://github.com/gnolang/roadmap/issues/4&gt;&#45;&gt;&lt;https://github.com/gnolang/roadmap/issues/5&gt;</title>
<path fill="none" stroke="black" d="M1287.11,-120.03C1356.27,-113.16 1462.03,-102.65 1535.61,-95.34"/>
<polygon fill="black" stroke="black" points="1536.17,-98.8 1545.77,-94.33 1535.47,-91.83 1536.17,-98.8"/>
</g>
<!-- &lt;https://github.com/gnolang/roadmap/issues/9&gt;&#45;&gt;&lt;https://github.com/gnolang/roadmap/issues/8&gt; -->
<g id="edge14" class="edge">
<title>&lt;https://github.com/gnolang/roadmap/issues/9&gt;&#45;&gt;&lt;https://github.com/gnolang/roadmap/issues/8&gt;</title>
<path fill="none" stroke="black" d="M1393.84,-199.01C1422.6,-201.94 1452.03,-204.94 1479.75,-207.76"/>
<polygon fill="black" stroke="black" points="1479.57,-211.26 1489.88,-208.8 1480.28,-204.3 1479.57,-211.26"/>
</g>
<!-- &lt;https://github.com/gnolang/roadmap/issues/30&gt;&#45;&gt;&lt;https://github.com/gnolang/roadmap/issues/10&gt; -->
<g id="edge5" class="edge">
<title>&lt;https://github.com/gnolang/roadmap/issues/30&gt;&#45;&gt;&lt;https://github.com/gnolang/roadmap/issues/10&gt;</title>
<path fill="none" stroke="black" d="M1717.63,-141C1736.5,-141 1756.69,-141 1776.79,-141"/>
<polygon fill="black" stroke="black" points="1776.97,-144.5 1786.97,-141 1776.97,-137.5 1776.97,-144.5"/>
</g>
<!-- &lt;https://github.com/gnolang/roadmap/issues/11&gt; -->
<g id="node10" class="node">
<title>&lt;https://github.com/gnolang/roadmap/issues/11&gt;</title>
<g id="a_node10"><a xlink:href="<https://github.com/gnolang/roadmap/issues/11>" xlink:title="Proof&#45;of&#45;Contributions MVP">
<path fill="none" stroke="black" d="M528.5,-199C528.5,-199 340.5,-199 340.5,-199 334.5,-199 328.5,-193 328.5,-187 328.5,-187 328.5,-175 328.5,-175 328.5,-169 334.5,-163 340.5,-163 340.5,-163 528.5,-163 528.5,-163 534.5,-163 540.5,-169 540.5,-175 540.5,-175 540.5,-187 540.5,-187 540.5,-193 534.5,-199 528.5,-199"/>
<text text-anchor="middle" x="434.5" y="-177.3" font-family="Times,serif" font-size="14.00">Proof&#45;of&#45;Contributions MVP</text>
</a>
</g>
</g>
<!-- &lt;https://github.com/gnolang/roadmap/issues/11&gt;&#45;&gt;&lt;https://github.com/gnolang/roadmap/issues/1&gt; -->
<g id="edge7" class="edge">
<title>&lt;https://github.com/gnolang/roadmap/issues/11&gt;&#45;&gt;&lt;https://github.com/gnolang/roadmap/issues/1&gt;</title>
<path fill="none" stroke="black" d="M540.86,-172.83C583.08,-169.55 631.73,-165.78 674.33,-162.47"/>
<polygon fill="black" stroke="black" points="674.75,-165.95 684.45,-161.68 674.21,-158.97 674.75,-165.95"/>
</g>
<!-- &lt;https://github.com/gnolang/roadmap/issues/2&gt; -->
<g id="node11" class="node">
<title>&lt;https://github.com/gnolang/roadmap/issues/2&gt;</title>
<g id="a_node11"><a xlink:href="<https://github.com/gnolang/roadmap/issues/2>" xlink:title="GnoVM MVP is finished">
<path fill="none" stroke="black" d="M515,-145C515,-145 354,-145 354,-145 348,-145 342,-139 342,-133 342,-133 342,-121 342,-121 342,-115 348,-109 354,-109 354,-109 515,-109 515,-109 521,-109 527,-115 527,-121 527,-121 527,-133 527,-133 527,-139 521,-145 515,-145"/>
<text text-anchor="middle" x="434.5" y="-123.3" font-family="Times,serif" font-size="14.00">GnoVM MVP is finished</text>
</a>
</g>
</g>
<!-- &lt;https://github.com/gnolang/roadmap/issues/2&gt;&#45;&gt;&lt;https://github.com/gnolang/roadmap/issues/1&gt; -->
<g id="edge8" class="edge">
<title>&lt;https://github.com/gnolang/roadmap/issues/2&gt;&#45;&gt;&lt;https://github.com/gnolang/roadmap/issues/1&gt;</title>
<path fill="none" stroke="black" d="M527.39,-134.13C572.41,-137.62 626.96,-141.85 674.12,-145.51"/>
<polygon fill="black" stroke="black" points="674.13,-149.03 684.37,-146.31 674.67,-142.05 674.13,-149.03"/>
</g>
<!-- &lt;https://github.com/gnolang/roadmap/issues/33&gt; -->
<g id="node12" class="node">
<title>&lt;https://github.com/gnolang/roadmap/issues/33&gt;</title>
<g id="a_node12"><a xlink:href="<https://github.com/gnolang/roadmap/issues/33>" xlink:title="Strong stdlibs">
<path fill="none" stroke="black" d="M168,-145C168,-145 74,-145 74,-145 68,-145 62,-139 62,-133 62,-133 62,-121 62,-121 62,-115 68,-109 74,-109 74,-109 168,-109 168,-109 174,-109 180,-115 180,-121 180,-121 180,-133 180,-133 180,-139 174,-145 168,-145"/>
<text text-anchor="middle" x="121" y="-123.3" font-family="Times,serif" font-size="14.00">Strong stdlibs</text>
</a>
</g>
</g>
<!-- &lt;https://github.com/gnolang/roadmap/issues/33&gt;&#45;&gt;&lt;https://github.com/gnolang/roadmap/issues/2&gt; -->
<g id="edge9" class="edge">
<title>&lt;https://github.com/gnolang/roadmap/issues/33&gt;&#45;&gt;&lt;https://github.com/gnolang/roadmap/issues/2&gt;</title>
<path fill="none" stroke="black" d="M180.23,-127C222.73,-127 281.45,-127 331.64,-127"/>
<polygon fill="black" stroke="black" points="331.89,-130.5 341.89,-127 331.89,-123.5 331.89,-130.5"/>
</g>
<!-- &lt;https://github.com/gnolang/roadmap/issues/12&gt; -->
<g id="node13" class="node">
<title>&lt;https://github.com/gnolang/roadmap/issues/12&gt;</title>
<g id="a_node13"><a xlink:href="<https://github.com/gnolang/roadmap/issues/12>" xlink:title="GoR: Evaluation DAO MVP">
<path fill="none" stroke="black" d="M212.5,-253C212.5,-253 29.5,-253 29.5,-253 23.5,-253 17.5,-247 17.5,-241 17.5,-241 17.5,-229 17.5,-229 17.5,-223 23.5,-217 29.5,-217 29.5,-217 212.5,-217 212.5,-217 218.5,-217 224.5,-223 224.5,-229 224.5,-229 224.5,-241 224.5,-241 224.5,-247 218.5,-253 212.5,-253"/>
<text text-anchor="middle" x="121" y="-231.3" font-family="Times,serif" font-size="14.00">GoR: Evaluation DAO MVP</text>
</a>
</g>
</g>
<!-- &lt;https://github.com/gnolang/roadmap/issues/12&gt;&#45;&gt;&lt;https://github.com/gnolang/roadmap/issues/11&gt; -->
<g id="edge10" class="edge">
<title>&lt;https://github.com/gnolang/roadmap/issues/12&gt;&#45;&gt;&lt;https://github.com/gnolang/roadmap/issues/11&gt;</title>
<path fill="none" stroke="black" d="M224.86,-217.17C255.16,-211.92 288.5,-206.14 319.46,-200.77"/>
<polygon fill="black" stroke="black" points="320.16,-204.2 329.42,-199.04 318.97,-197.3 320.16,-204.2"/>
</g>
<!-- &lt;https://github.com/gnolang/roadmap/issues/32&gt; -->
<g id="node14" class="node">
<title>&lt;https://github.com/gnolang/roadmap/issues/32&gt;</title>
<g id="a_node14"><a xlink:href="<https://github.com/gnolang/roadmap/issues/32>" xlink:title="GoR: Robust documentation and tutorials">
<path fill="none" stroke="black" d="M579,-91C579,-91 290,-91 290,-91 284,-91 278,-85 278,-79 278,-79 278,-67 278,-67 278,-61 284,-55 290,-55 290,-55 579,-55 579,-55 585,-55 591,-61 591,-67 591,-67 591,-79 591,-79 591,-85 585,-91 579,-91"/>
<text text-anchor="middle" x="434.5" y="-69.3" font-family="Times,serif" font-size="14.00">GoR: Robust documentation and tutorials</text>
</a>
</g>
</g>
<!-- &lt;https://github.com/gnolang/roadmap/issues/32&gt;&#45;&gt;&lt;https://github.com/gnolang/roadmap/issues/1&gt; -->
<g id="edge11" class="edge">
<title>&lt;https://github.com/gnolang/roadmap/issues/32&gt;&#45;&gt;&lt;https://github.com/gnolang/roadmap/issues/1&gt;</title>
<path fill="none" stroke="black" d="M547.47,-91.04C562.15,-93.81 576.97,-96.82 591,-100 632.46,-109.39 678.32,-122.16 714.87,-132.92"/>
<polygon fill="black" stroke="black" points="714.34,-136.41 724.92,-135.9 716.33,-129.7 714.34,-136.41"/>
</g>
<!-- &lt;https://github.com/gnolang/roadmap/issues/31&gt; -->
<g id="node16" class="node">
<title>&lt;https://github.com/gnolang/roadmap/issues/31&gt;</title>
<g id="a_node16"><a xlink:href="<https://github.com/gnolang/roadmap/issues/31>" xlink:title="GoR: Governance modules MvP">
<path fill="none" stroke="black" d="M230,-199C230,-199 12,-199 12,-199 6,-199 0,-193 0,-187 0,-187 0,-175 0,-175 0,-169 6,-163 12,-163 12,-163 230,-163 230,-163 236,-163 242,-169 242,-175 242,-175 242,-187 242,-187 242,-193 236,-199 230,-199"/>
<text text-anchor="middle" x="121" y="-177.3" font-family="Times,serif" font-size="14.00">GoR: Governance modules MvP</text>
</a>
</g>
</g>
<!-- &lt;https://github.com/gnolang/roadmap/issues/31&gt;&#45;&gt;&lt;https://github.com/gnolang/roadmap/issues/11&gt; -->
<g id="edge15" class="edge">
<title>&lt;https://github.com/gnolang/roadmap/issues/31&gt;&#45;&gt;&lt;https://github.com/gnolang/roadmap/issues/11&gt;</title>
<path fill="none" stroke="black" d="M242.43,-181C267.34,-181 293.51,-181 318.23,-181"/>
<polygon fill="black" stroke="black" points="318.35,-184.5 328.35,-181 318.35,-177.5 318.35,-184.5"/>
</g>
</g>
</svg>
